<svg width="42" height="85" viewBox="0 0 42 85" fill="none" xmlns="http://www.w3.org/2000/svg">
<path d="M20 2V80L2 57.2958" stroke="white" stroke-width="3" stroke-miterlimit="10" stroke-linecap="round"/>
<path d="M20 2V10" stroke="#EC6C00" stroke-width="3" stroke-miterlimit="10" stroke-linecap="round"/>
<path d="M33.1973 6.35547C33.373 6.35547 33.5293 6.32812 33.666 6.27344C33.8027 6.22266 33.9277 6.13086 34.041 5.99805C34.1543 5.86523 34.2637 5.67773 34.3691 5.43555C34.4785 5.19727 34.5898 4.89258 34.7031 4.52148C34.8281 4.11523 34.9668 3.74023 35.1191 3.39648C35.2754 3.05664 35.4551 2.75977 35.6582 2.50586C35.8652 2.25195 36.1016 2.05469 36.3672 1.91406C36.6367 1.77344 36.9473 1.70312 37.2988 1.70312C37.6465 1.70312 37.9629 1.77539 38.248 1.91992C38.5332 2.06836 38.7793 2.27734 38.9863 2.54687C39.1973 2.82031 39.3594 3.14258 39.4727 3.51367C39.5898 3.88477 39.6484 4.29492 39.6484 4.74414C39.6484 5.37695 39.5312 5.92187 39.2969 6.37891C39.0625 6.83984 38.748 7.19336 38.3535 7.43945C37.959 7.68945 37.5234 7.81445 37.0469 7.81445L37.0469 6.35547C37.3281 6.35547 37.5762 6.29492 37.791 6.17383C38.0098 6.05664 38.1816 5.87695 38.3066 5.63477C38.4316 5.39648 38.4941 5.09375 38.4941 4.72656C38.4941 4.37891 38.4414 4.08984 38.3359 3.85937C38.2305 3.62891 38.0879 3.45703 37.9082 3.34375C37.7285 3.23047 37.5254 3.17383 37.2988 3.17383C37.1387 3.17383 36.9922 3.21094 36.8594 3.28516C36.7305 3.35937 36.6094 3.47266 36.4961 3.625C36.3867 3.77734 36.2832 3.96875 36.1855 4.19922C36.0879 4.42969 35.9941 4.70117 35.9043 5.01367C35.7637 5.48633 35.6074 5.89844 35.4355 6.25C35.2676 6.60156 35.0762 6.89453 34.8613 7.12891C34.6465 7.36328 34.4023 7.53906 34.1289 7.65625C33.8594 7.77344 33.5527 7.83203 33.209 7.83203C32.8496 7.83203 32.5254 7.75977 32.2363 7.61523C31.9512 7.4707 31.707 7.26367 31.5039 6.99414C31.3047 6.72852 31.1504 6.4082 31.041 6.0332C30.9355 5.66211 30.8828 5.24805 30.8828 4.79102C30.8828 4.38086 30.9375 3.97656 31.0469 3.57812C31.1562 3.18359 31.3223 2.82422 31.5449 2.5C31.7715 2.17578 32.0527 1.91797 32.3887 1.72656C32.7285 1.53516 33.125 1.43945 33.5781 1.43945L33.5781 2.91016C33.3008 2.91016 33.0645 2.95703 32.8691 3.05078C32.6738 3.14844 32.5137 3.2832 32.3887 3.45508C32.2676 3.62695 32.1777 3.82617 32.1191 4.05273C32.0605 4.2832 32.0312 4.5293 32.0312 4.79102C32.0312 5.13477 32.0801 5.42187 32.1777 5.65234C32.2754 5.88672 32.4121 6.0625 32.5879 6.17969C32.7637 6.29687 32.9668 6.35547 33.1973 6.35547ZM32.0078 12.182C32.0078 12.4125 32.0527 12.6195 32.1426 12.8031C32.2363 12.9906 32.3652 13.141 32.5293 13.2543C32.6934 13.3715 32.8828 13.4359 33.0977 13.4477L33.0977 14.7777C32.6875 14.7699 32.3145 14.6488 31.9785 14.4145C31.6426 14.1801 31.375 13.8695 31.1758 13.4828C30.9805 13.0961 30.8828 12.6684 30.8828 12.1996C30.8828 11.7152 30.9648 11.2934 31.1289 10.934C31.2969 10.5746 31.5273 10.2758 31.8203 10.0375C32.1133 9.79922 32.4512 9.61953 32.834 9.49844C33.2168 9.38125 33.627 9.32266 34.0645 9.32266L34.2695 9.32266C34.707 9.32266 35.1172 9.38125 35.5 9.49844C35.8867 9.61953 36.2266 9.79922 36.5195 10.0375C36.8125 10.2758 37.041 10.5746 37.2051 10.934C37.373 11.2934 37.457 11.7133 37.457 12.1937C37.457 12.7016 37.3555 13.1469 37.1523 13.5297C36.9531 13.9125 36.6738 14.2133 36.3145 14.432C35.959 14.6547 35.5449 14.7699 35.0723 14.7777L35.0723 13.4477C35.3066 13.4359 35.5176 13.3773 35.7051 13.2719C35.8965 13.1703 36.0488 13.0258 36.1621 12.8383C36.2754 12.6547 36.332 12.434 36.332 12.1762C36.332 11.891 36.2734 11.6547 36.1562 11.4672C36.043 11.2797 35.8867 11.1332 35.6875 11.0277C35.4922 10.9223 35.2715 10.8461 35.0254 10.7992C34.7832 10.7562 34.5312 10.7348 34.2695 10.7348L34.0645 10.7348C33.8027 10.7348 33.5488 10.7562 33.3027 10.7992C33.0566 10.8422 32.8359 10.9164 32.6406 11.0219C32.4492 11.1312 32.2949 11.2797 32.1777 11.4672C32.0645 11.6547 32.0078 11.893 32.0078 12.182ZM36.1328 17.8797L31 17.8797L31 16.4676L37.3398 16.4676L37.3398 17.8152L36.1328 17.8797ZM37.3809 19.8191L36.0684 19.8074C36.084 19.7215 36.0957 19.6277 36.1035 19.5262C36.1113 19.4285 36.1152 19.3309 36.1152 19.2332C36.1152 18.991 36.0801 18.7781 36.0098 18.5945C35.9434 18.4109 35.8457 18.2566 35.7168 18.1316C35.5918 18.0105 35.4395 17.9168 35.2598 17.8504C35.0801 17.784 34.8789 17.7449 34.6562 17.7332L34.6328 17.4109C35.0312 17.4109 35.4004 17.45 35.7402 17.5281C36.0801 17.6062 36.3789 17.7234 36.6367 17.8797C36.8945 18.0398 37.0957 18.2391 37.2402 18.4773C37.3848 18.7195 37.457 18.9988 37.457 19.3152C37.457 19.4012 37.4492 19.493 37.4336 19.5906C37.418 19.6922 37.4004 19.7684 37.3809 19.8191ZM34.0996 20.882L34.2344 20.882C34.6914 20.882 35.1152 20.9484 35.5059 21.0812C35.9004 21.2141 36.2422 21.4055 36.5312 21.6555C36.8242 21.9094 37.0508 22.218 37.2109 22.5812C37.375 22.9484 37.457 23.3625 37.457 23.8234C37.457 24.2883 37.375 24.7023 37.2109 25.0656C37.0508 25.4328 36.8242 25.7434 36.5312 25.9973C36.2422 26.2512 35.9004 26.4445 35.5059 26.5773C35.1152 26.7102 34.6914 26.7766 34.2344 26.7766L34.0996 26.7766C33.6426 26.7766 33.2187 26.7102 32.8281 26.5773C32.4375 26.4445 32.0957 26.2512 31.8027 25.9973C31.5137 25.7434 31.2871 25.4348 31.123 25.0715C30.9629 24.7082 30.8828 24.2961 30.8828 23.8352C30.8828 23.3703 30.9629 22.9543 31.123 22.5871C31.2871 22.2238 31.5137 21.9152 31.8027 21.6613C32.0957 21.4074 32.4375 21.2141 32.8281 21.0812C33.2187 20.9484 33.6426 20.882 34.0996 20.882ZM34.2344 22.2941L34.0996 22.2941C33.8145 22.2941 33.5449 22.3234 33.291 22.382C33.0371 22.4406 32.8145 22.5324 32.623 22.6574C32.4316 22.7824 32.2812 22.9426 32.1719 23.1379C32.0625 23.3332 32.0078 23.5656 32.0078 23.8352C32.0078 24.0969 32.0625 24.3234 32.1719 24.5148C32.2812 24.7102 32.4316 24.8703 32.623 24.9953C32.8145 25.1203 33.0371 25.2121 33.291 25.2707C33.5449 25.3332 33.8145 25.3645 34.0996 25.3645L34.2344 25.3645C34.5156 25.3645 34.7812 25.3332 35.0312 25.2707C35.2852 25.2121 35.5098 25.1184 35.7051 24.9895C35.9004 24.8645 36.0527 24.7043 36.1621 24.509C36.2754 24.3176 36.332 24.0891 36.332 23.8234C36.332 23.5578 36.2754 23.3273 36.1621 23.132C36.0527 22.9406 35.9004 22.7824 35.7051 22.6574C35.5098 22.5324 35.2852 22.4406 35.0312 22.382C34.7812 22.3234 34.5156 22.2941 34.2344 22.2941ZM40 30.0719L31 30.0719L31 28.6539L40 28.6539L40 30.0719ZM40 33.7305L31 33.7305L31 32.3125L40 32.3125L40 33.7305Z" fill="white"/>
</svg>
