<svg width="112" height="40" viewBox="0 0 112 40" fill="none" xmlns="http://www.w3.org/2000/svg">
<path d="M60.8021 25.9975C59.1643 25.6248 57.8059 24.992 56.7305 24.0991C55.7152 23.2553 54.891 22.1233 54.2578 20.6995H52.5563V23.8178C53.5538 23.6807 54.6186 23.5225 55.7541 23.3468L55.8284 24.8901C54.0137 25.1854 51.8488 25.5194 49.3301 25.892L48.9304 24.2889C49.0966 24.2678 49.3655 24.2362 49.7298 24.187C50.1649 24.1378 50.4975 24.0991 50.7345 24.0674V20.6995H48.2936V19.1562H50.7522V12.7438H60.0911V14.1712H52.5563V14.9516H59.6737V16.3051H52.5563V17.0398H59.6737V18.3933H52.5563V19.1562H61.6299V20.6995H60.0451L61.1842 21.4941C60.3953 22.0636 59.4862 22.6155 58.4603 23.1569C59.426 23.7546 60.5757 24.1764 61.9093 24.4225C61.4672 24.883 61.0957 25.4069 60.7986 25.9975H60.8021ZM57.2646 22.2323C58.0747 21.7612 58.8282 21.2515 59.5286 20.7031H56.0937C56.4086 21.262 56.7977 21.7718 57.2611 22.2323H57.2646Z" fill="#585757"/>
<path d="M65.981 26.0291C65.5777 25.646 65.1072 25.2979 64.5766 24.985C64.9622 24.7003 65.3301 24.3417 65.6874 23.9128C66.0411 23.4804 66.3241 23.0444 66.5293 22.605L68.1707 23.0901C67.9124 23.621 67.5835 24.1554 67.1802 24.6932C66.784 25.2241 66.3842 25.6706 65.981 26.0327V26.0291ZM64.6933 22.4995V20.9703H66.0234V15.5141H64.8702V13.9849H66.0234V12.424H67.6082V13.9849H69.4442V12.424H71.0573V13.9849H72.0619V15.5141H71.0573V20.9703H71.9593V22.4995H64.6933ZM67.6082 16.3649H69.4442V15.5106H67.6082V16.3649ZM67.6082 18.6289H69.4442V17.7043H67.6082V18.6289ZM67.6082 20.9667H69.4442V19.9648H67.6082V20.9667ZM72.7588 26.0116C72.6102 25.8534 72.3873 25.667 72.0937 25.4526C71.7966 25.2381 71.556 25.094 71.3686 25.0272C71.3898 24.9991 71.4145 24.9569 71.4499 24.9007C71.4853 24.8479 71.5065 24.8057 71.5171 24.7776L70.2896 25.4702C69.9748 24.8514 69.4477 24.1132 68.7048 23.2483L70.0349 22.5277C70.8061 23.3714 71.3367 24.0393 71.6339 24.528C72.0194 23.7124 72.2812 22.6859 72.4192 21.4378C72.5182 20.6046 72.5678 19.5535 72.5678 18.2914V12.8915H78.0438V24.0393C78.0438 24.4788 77.9942 24.8233 77.8952 25.0694C77.7961 25.3155 77.6193 25.5053 77.361 25.6424C76.9472 25.8674 76.1583 25.9694 74.9945 25.9518C74.9166 25.3542 74.7468 24.7987 74.4921 24.2889C74.8459 24.3171 75.3199 24.3276 75.9142 24.3171H76.0486C76.2467 24.3171 76.3458 24.2151 76.3458 24.0077V21.1109H74.0959C73.8978 23.2378 73.4557 24.8725 72.7623 26.0081L72.7588 26.0116ZM74.195 19.5535H76.3422V17.743H74.2091V18.2879C74.2091 18.8258 74.2056 19.2476 74.195 19.5535ZM74.2091 16.1997H76.3422V14.477H74.2091V16.1997Z" fill="#585757"/>
<path d="M83.0741 26.0432L81.3726 25.3226C82.1119 24.4507 82.7203 23.4382 83.1944 22.2921L84.8959 22.7632C84.3228 24.0675 83.7179 25.1608 83.0741 26.0432ZM82.0376 22.1621V12.8072H86.7424V16.4387C87.5313 16.2243 88.1291 15.929 88.5324 15.5563C88.8791 15.2435 89.1232 14.8216 89.2717 14.2907H87.1705V12.7615H94.7937C94.7831 12.9583 94.7725 13.1552 94.7654 13.3486C94.7053 14.3892 94.6381 15.1415 94.5567 15.6126C94.4683 16.1223 94.3409 16.4669 94.1711 16.6426C93.9341 16.9063 93.5945 17.0645 93.1488 17.1137C92.7243 17.1629 92.1583 17.1735 91.4473 17.1419C91.4084 16.611 91.2633 16.147 91.0192 15.7427C91.5216 15.7813 91.9496 15.8024 92.3069 15.8024C92.505 15.8024 92.6536 15.7532 92.7491 15.6548C92.8764 15.5282 92.9755 15.0712 93.0462 14.2872H91.0051C90.8353 15.1099 90.5452 15.7673 90.1313 16.2595C89.6467 16.829 88.9357 17.2754 88.0018 17.5989H94.3374V21.9828H87.6162V17.7184L87.5879 17.7325C87.411 17.2825 87.128 16.8747 86.746 16.5126V21.4695H83.6967V22.1621H82.0376ZM83.6967 16.2489H85.1329V14.3364H83.6967V16.2489ZM83.6967 19.9121H85.1329V17.7782H83.6967V19.9121ZM85.9324 25.9272C85.9324 25.0448 85.8369 24.0183 85.6529 22.8511L87.2801 22.6613C87.5172 23.8566 87.6445 24.8585 87.6657 25.6636L85.9359 25.9272H85.9324ZM89.5441 25.8675C89.4451 25.0448 89.1904 24.0288 88.773 22.823L90.432 22.5277C90.8671 23.6175 91.1572 24.6124 91.3058 25.5124L89.5441 25.8639V25.8675ZM89.2788 20.573H92.5934V18.9981H89.2788V20.573ZM93.4389 25.987C93.1347 25.1433 92.597 24.0851 91.8258 22.8089L93.4247 22.1902C94.2737 23.505 94.8468 24.528 95.1404 25.2628L93.4389 25.9835V25.987Z" fill="#585757"/>
<path d="M105.912 26.015C105.696 25.7584 105.403 25.4807 105.038 25.1748H101.724V25.8358H100.45V22.0108L100.376 22.0987C100.376 22.0987 100.348 22.0636 100.316 22.0249C100.178 21.8667 100.065 21.7401 99.9761 21.6417C99.7886 23.3467 99.4773 24.7494 99.0422 25.8498C98.9255 25.6916 98.738 25.5194 98.4868 25.3295C98.2357 25.1397 98.0163 25.0096 97.8289 24.9393C98.1932 23.9585 98.4409 22.7175 98.5682 21.2163C98.6566 20.246 98.7026 19.0296 98.7026 17.5672V13.0075L99.4419 13.2149C101.345 13.0497 102.841 12.8036 103.927 12.4802L105.095 13.6262C103.832 13.9883 102.191 14.2485 100.167 14.4067V14.9059H105.127V18.3054H103.216L104.43 18.6289C104.391 18.7062 104.327 18.8293 104.239 18.998C104.122 19.1949 104.037 19.3425 103.988 19.4374H105.201V20.5273H103.811V21.0265H105.07V21.9968H103.811V22.51H105.084V23.5085H103.811V24.0217H105.321V24.6827C106.061 24.2327 106.648 23.7229 107.083 23.1534L108.473 23.976C108.148 24.3487 107.748 24.7248 107.274 25.101C106.8 25.4772 106.347 25.7795 105.912 26.0045V26.015ZM100.082 20.3796C100.486 19.7328 100.793 19.0402 100.998 18.3054H100.171V18.3793C100.149 19.2406 100.121 19.9085 100.082 20.3796ZM100.171 17.0117H103.56V16.2031H100.171V17.0117ZM101.918 19.4374H102.746C102.933 18.8996 103.05 18.5199 103.1 18.3054H101.25L102.226 18.555C102.138 18.8503 102.035 19.1421 101.915 19.4374H101.918ZM101.727 21.0265H102.658V20.5273H101.727V21.0265ZM101.727 22.5136H102.658V22.0003H101.727V22.5136ZM101.727 24.0288H102.658V23.5155H101.727V24.0288ZM105.813 23.0303V15.2328H107.589C107.617 15.0254 107.652 14.7196 107.691 14.3047H105.516V12.8352H111.629V14.3047H109.439C109.35 14.6282 109.262 14.9375 109.174 15.2328H111.395V23.0303H105.816H105.813ZM107.249 17.4547H109.899V16.5582H107.249V17.4547ZM107.249 19.5886H109.899V18.6781H107.249V19.5886ZM107.249 21.7226H109.899V20.8261H107.249V21.7226ZM110.684 26.001C110.32 25.4701 109.711 24.8057 108.862 24.0006L110.104 23.2202C110.964 23.9549 111.593 24.5877 112 25.1186L110.684 26.001Z" fill="#585757"/>
<path d="M50.2852 33.3345V33.8091H48.2936V30.29H48.8348V33.3345H50.2852Z" fill="#585757"/>
<path d="M52.3016 30.2233C53.3204 30.2233 53.9324 30.944 53.9324 32.0338C53.9324 33.1236 53.3062 33.8513 52.3087 33.8513C51.3111 33.8513 50.6779 33.1306 50.6779 32.0338C50.6779 30.9369 51.3076 30.2233 52.3016 30.2233ZM52.3051 33.3521C52.9737 33.3521 53.3628 32.8494 53.3628 32.0373C53.3628 31.2252 52.9737 30.726 52.3016 30.726C51.6295 30.726 51.2439 31.2287 51.2439 32.0373C51.2439 32.8459 51.6648 33.3521 52.3051 33.3521Z" fill="#585757"/>
<path d="M54.5585 30.29H55.1988L56.0725 31.7631C56.6208 32.6912 56.8543 33.1622 56.8543 33.1622C56.8543 33.1622 56.8225 32.6876 56.8225 31.7666V30.29H57.3637V33.8091H56.7234L55.8461 32.3396C55.3084 31.4467 55.0573 30.9299 55.0573 30.9299C55.0573 30.9299 55.0997 31.4537 55.0997 32.3361V33.8091H54.5585V30.29Z" fill="#585757"/>
<path d="M60.9825 33.4857H60.979V33.5208C60.7385 33.7001 60.3316 33.8513 59.8399 33.8513C58.7504 33.8513 57.9934 33.1763 57.9934 32.0443C57.9934 30.9123 58.7645 30.2267 59.8081 30.2267C60.1442 30.2267 60.5227 30.283 60.8375 30.4623V31.0142C60.4944 30.7998 60.1336 30.733 59.8293 30.733C59.0794 30.733 58.5629 31.2498 58.5629 32.0443C58.5629 32.8388 59.0511 33.3486 59.8576 33.3486C60.0876 33.3486 60.2892 33.3029 60.4555 33.2325V32.2622H59.7338V31.7982H60.9861V33.4857H60.9825Z" fill="#585757"/>
<path d="M65.1355 30.74H64.2052V33.8126H63.6639V30.74H62.7407V30.29H65.1391V30.74H65.1355Z" fill="#585757"/>
<path d="M67.679 33.3591V33.8091H65.6343V30.29H67.6542V30.74H66.1756V31.8263H67.4844V32.2763H66.1756V33.3626H67.679V33.3591Z" fill="#585757"/>
<path d="M69.3487 32.4732H68.8817V33.8091H68.3405V30.29H69.3274C70.1517 30.29 70.6009 30.7225 70.6009 31.3869C70.5903 31.8896 70.3285 32.2377 69.9005 32.3888L70.8238 33.8091H70.1764L69.3451 32.4732H69.3487ZM68.8817 32.0232H69.3699C69.8368 32.0232 70.0526 31.7525 70.0526 31.3799C70.0526 30.9615 69.8121 30.7365 69.3416 30.7365H68.8782V32.0197L68.8817 32.0232Z" fill="#585757"/>
<path d="M71.5525 30.29H72.1928L72.6668 31.5767C72.9463 32.3185 73.1762 33.0497 73.1762 33.0497C73.1762 33.0497 73.4168 32.3396 73.7069 31.5767L74.2021 30.29H74.8424L75.1678 33.8091H74.6301L74.5028 32.431C74.4356 31.6822 74.3931 31.0213 74.3931 31.0213C74.3931 31.0213 74.1561 31.6857 73.8767 32.431L73.3814 33.7423H72.9569L72.4794 32.431C72.1893 31.6154 72.0018 31.0424 72.0018 31.0424C72.0018 31.1795 71.9664 31.7806 71.9169 32.431L71.8108 33.8091H71.2731L71.5455 30.29H71.5525Z" fill="#585757"/>
<path d="M79.7418 30.9615C79.4517 30.8033 79.2465 30.7365 78.8468 30.7365C78.157 30.7365 77.6051 31.2392 77.6051 32.0407C77.6051 32.8423 78.1251 33.3521 78.8857 33.3521C79.2005 33.3521 79.526 33.2536 79.7418 33.0919V33.6368C79.4941 33.7985 79.1368 33.8513 78.8362 33.8513C77.7961 33.8513 77.032 33.1622 77.032 32.0443C77.032 30.9263 77.7926 30.2408 78.8255 30.2408C79.151 30.2408 79.4658 30.283 79.7347 30.4341V30.9615H79.7418Z" fill="#585757"/>
<path d="M82.4303 32.9478H81.0011L80.7181 33.8091H80.1451L81.369 30.29H82.08L83.2899 33.8091H82.7133L82.4338 32.9478H82.4303ZM82.2817 32.4978L82.2251 32.3185C81.7723 30.9334 81.7192 30.6943 81.7192 30.6943C81.7192 30.6943 81.6626 30.9334 81.2028 32.3185L81.1462 32.4978H82.2817Z" fill="#585757"/>
<path d="M84.8428 32.4732H84.3759V33.8091H83.8346V30.29H84.8216C85.6458 30.29 86.0951 30.7225 86.0951 31.3869C86.0845 31.8896 85.8227 32.2377 85.3946 32.3888L86.3179 33.8091H85.6706L84.8393 32.4732H84.8428ZM84.3759 32.0232H84.864C85.331 32.0232 85.5468 31.7525 85.5468 31.3799C85.5468 30.9615 85.3062 30.7365 84.8357 30.7365H84.3723V32.0197L84.3759 32.0232Z" fill="#585757"/>
<path d="M88.8649 33.3591V33.8091H86.8203V30.29H88.8402V30.74H87.365V31.8263H88.6739V32.2763H87.365V33.3626H88.8685L88.8649 33.3591Z" fill="#585757"/>
<path d="M92.7314 30.9615C92.5191 30.8314 92.2113 30.7435 91.9319 30.7435C91.5428 30.7435 91.3128 30.9299 91.3128 31.2076C91.3128 31.517 91.617 31.6576 91.9743 31.8123C92.4201 32.0056 92.9153 32.2306 92.9153 32.8458C92.9153 33.4611 92.4094 33.8443 91.7267 33.8443C91.38 33.8443 91.0157 33.7704 90.761 33.6193V33.0603C91.0298 33.2572 91.3765 33.3697 91.7232 33.3697C92.1017 33.3697 92.3493 33.1868 92.3493 32.8669C92.3493 32.547 92.0557 32.4275 91.6878 32.2658C91.2527 32.0689 90.7433 31.8474 90.7433 31.2322C90.7433 30.617 91.2421 30.2619 91.9213 30.2619C92.1901 30.2619 92.4943 30.3076 92.7349 30.4306V30.965L92.7314 30.9615Z" fill="#585757"/>
<path d="M95.6003 33.3591V33.8091H93.5556V30.29H95.5755V30.74H94.1004V31.8263H95.4092V32.2763H94.1004V33.3626H95.6038L95.6003 33.3591Z" fill="#585757"/>
<path d="M97.2664 32.4732H96.7995V33.8091H96.2582V30.29H97.2452C98.0694 30.29 98.5187 30.7225 98.5187 31.3869C98.5081 31.8896 98.2463 32.2377 97.8183 32.3888L98.7416 33.8091H98.0942L97.2629 32.4732H97.2664ZM96.7995 32.0232H97.2876C97.7546 32.0232 97.9704 31.7525 97.9704 31.3799C97.9704 30.9615 97.7298 30.7365 97.2594 30.7365H96.7959V32.0197L96.7995 32.0232Z" fill="#585757"/>
<path d="M100.86 33.8091H100.22L99.0281 30.29H99.6047L100.057 31.6892C100.383 32.7017 100.546 33.331 100.546 33.331C100.546 33.331 100.715 32.7052 101.052 31.6892L101.508 30.29H102.084L100.86 33.8091Z" fill="#585757"/>
<path d="M102.668 30.29H103.206V33.8091H102.668V30.29Z" fill="#585757"/>
<path d="M106.574 30.9615C106.283 30.8033 106.078 30.7365 105.679 30.7365C104.989 30.7365 104.437 31.2392 104.437 32.0407C104.437 32.8423 104.957 33.3521 105.717 33.3521C106.032 33.3521 106.358 33.2536 106.574 33.0919V33.6368C106.326 33.7985 105.969 33.8513 105.668 33.8513C104.628 33.8513 103.864 33.1622 103.864 32.0443C103.864 30.9263 104.624 30.2408 105.657 30.2408C105.983 30.2408 106.298 30.283 106.566 30.4341V30.9615H106.574Z" fill="#585757"/>
<path d="M109.241 33.3591V33.8091H107.196V30.29H109.216V30.74H107.737V31.8263H109.046V32.2763H107.737V33.3626H109.241V33.3591Z" fill="#585757"/>
<path d="M111.813 30.9615C111.604 30.8314 111.293 30.7435 111.013 30.7435C110.624 30.7435 110.394 30.9299 110.394 31.2076C110.394 31.517 110.698 31.6576 111.056 31.8123C111.501 32.0056 111.996 32.2306 111.996 32.8458C111.996 33.4611 111.491 33.8443 110.808 33.8443C110.461 33.8443 110.097 33.7704 109.842 33.6193V33.0603C110.111 33.2572 110.458 33.3697 110.804 33.3697C111.183 33.3697 111.43 33.1868 111.43 32.8669C111.43 32.547 111.137 32.4275 110.769 32.2658C110.334 32.0689 109.824 31.8474 109.824 31.2322C109.824 30.617 110.323 30.2619 111.002 30.2619C111.271 30.2619 111.576 30.3076 111.816 30.4306V30.965L111.813 30.9615Z" fill="#585757"/>
<path d="M40.2423 20.0141V28.0014H40.2317C33.5742 28.0014 28.1618 33.3802 28.1618 39.9965H20.1212C20.1212 28.9541 29.1205 20.0106 40.2317 20.0106H40.2423V20.0141Z" fill="#E1690D"/>
<path d="M20.1212 0V0.0175778H20.1105C9.01349 0.0175778 0.0247623 8.93654 0 19.9578V20.0176C0 29.7838 7.0325 37.9047 16.3431 39.6449V31.4185C11.5216 29.8435 8.04068 25.3261 8.04068 20.0176V20C8.04068 13.3837 13.453 8.00492 20.1105 8.00492H20.1212V7.98734C25.4734 7.98734 30.0049 11.4572 31.5897 16.2489H39.8815C38.1198 6.99947 29.9483 0 20.1212 0Z" fill="#EC6C00"/>
<path d="M20.1212 14.0306C16.7959 14.0306 14.1004 16.7094 14.1004 20.0141C14.1004 23.3187 16.7959 25.9975 20.1212 25.9975C23.4464 25.9975 26.1419 23.3187 26.1419 20.0141C26.1419 16.7094 23.4464 14.0306 20.1212 14.0306Z" fill="#E1690D"/>
<path d="M39.2448 24.1976C31.0095 24.1976 24.3308 30.8349 24.3308 39.0191C24.3308 39.3496 24.3591 39.673 24.3803 40H28.1583C28.1583 33.3837 33.5707 28.0049 40.2282 28.0049H40.2388V24.2503C39.9063 24.2292 39.5773 24.2011 39.2412 24.2011L39.2448 24.1976Z" fill="#D2A258"/>
</svg>
