<svg width="146" height="34" viewBox="0 0 146 34" fill="none" xmlns="http://www.w3.org/2000/svg">
<path d="M19.6819 31.3835C27.6522 29.9384 32.938 22.3273 31.4881 14.3835C30.0382 6.43971 22.4017 1.17145 14.4314 2.61652C6.46117 4.06158 1.17536 11.6727 2.62524 19.6165C4.07512 27.5603 11.7116 32.8285 19.6819 31.3835Z" fill="#FFC629" stroke="#002E6D" stroke-width="0.79"/>
<path d="M5.88654 11.4364L4.74918 10.7175L4.90686 10.47L5.89995 10.6874L6.10462 10.7342C6.07107 10.6941 6.02409 10.6339 5.9637 10.5536L5.3598 9.75445L5.5007 9.53375L6.63807 10.2527L6.53742 10.4099L5.58458 9.80795L6.30592 10.771L6.21198 10.9181L5.01423 10.664L5.98383 11.2759L5.88318 11.4331L5.88654 11.4364Z" fill="#53575A"/>
<path d="M5.89993 9.32645L5.74561 9.21276L5.85297 9.06897L6.0073 9.18266L5.89993 9.32645ZM6.83264 10.0086L6.04756 9.43345L6.15492 9.28967L6.94 9.86816L6.83264 10.0119V10.0086Z" fill="#53575A"/>
<path d="M7.11786 9.61736L6.36298 8.99874L6.46698 8.87501L6.57435 8.96195C6.55757 8.89842 6.55757 8.83489 6.57435 8.7747C6.59112 8.71451 6.62132 8.65432 6.66829 8.59747C6.70519 8.554 6.74546 8.51722 6.78907 8.49046C6.83269 8.46371 6.8763 8.44699 6.91656 8.44031C6.95682 8.43362 6.99709 8.44031 7.0407 8.45703C7.08432 8.47375 7.14135 8.51053 7.20845 8.56737L7.67144 8.94858L7.55737 9.08902L7.09773 8.71116C7.0407 8.66435 6.99708 8.6376 6.96017 8.63091C6.92327 8.62088 6.88972 8.62422 6.85281 8.64094C6.8159 8.65766 6.78572 8.68107 6.75552 8.71785C6.70184 8.78473 6.675 8.85161 6.67835 8.92183C6.68171 8.99205 6.73203 9.06562 6.82262 9.13918L7.23529 9.47692L7.12122 9.61402L7.11786 9.61736Z" fill="#53575A"/>
<path d="M7.0239 7.94876L6.883 7.8217L7.00377 7.69128L7.14469 7.8217L7.0239 7.95211V7.94876ZM7.87273 8.73124L7.15475 8.07249L7.27553 7.94208L7.99352 8.60083L7.87273 8.73124Z" fill="#53575A"/>
<path d="M7.95324 8.21629L8.06396 8.0725C8.11764 8.11263 8.17467 8.12935 8.23171 8.12266C8.28875 8.11263 8.34578 8.08253 8.40282 8.02903C8.45986 7.97553 8.4934 7.92203 8.50347 7.87187C8.51353 7.82171 8.50347 7.78158 8.47327 7.74814C8.44643 7.72139 8.41289 7.71136 8.37263 7.72139C8.34579 7.72808 8.28875 7.75817 8.20152 7.80833C8.07738 7.8819 7.99014 7.92871 7.94317 7.94543C7.89284 7.96215 7.84588 7.9655 7.80226 7.95547C7.75529 7.94543 7.71839 7.92537 7.68483 7.88859C7.6278 7.8284 7.60431 7.75483 7.62109 7.66789C7.63451 7.58095 7.68819 7.49401 7.77878 7.40707C7.83581 7.35356 7.89285 7.31009 7.94989 7.28668C8.00692 7.25993 8.0606 7.2499 8.10757 7.25325C8.15454 7.25659 8.20822 7.28 8.2619 7.32012L8.15119 7.45722C8.06396 7.39369 7.97337 7.40706 7.87272 7.50404C7.81568 7.55754 7.78213 7.6077 7.77207 7.65117C7.762 7.69464 7.76871 7.72808 7.7922 7.75483C7.81568 7.78158 7.84923 7.78827 7.89285 7.77824C7.91633 7.77155 7.97673 7.74145 8.07402 7.68461C8.20822 7.6077 8.29545 7.56088 8.34242 7.54417C8.38939 7.52745 8.43302 7.5241 8.47663 7.53413C8.52025 7.54416 8.55714 7.56423 8.59405 7.60101C8.6578 7.66789 8.68129 7.74814 8.66451 7.84512C8.64774 7.94209 8.5907 8.03572 8.4934 8.12935C8.30887 8.30657 8.13106 8.33333 7.95659 8.21295L7.95324 8.21629Z" fill="#53575A"/>
<path d="M9.18118 7.28668L9.29526 7.3803C9.26507 7.42043 9.23151 7.45387 9.20131 7.47728C9.15434 7.5174 9.10737 7.54416 9.06711 7.55419C9.02685 7.56422 8.98995 7.56422 8.9564 7.5475C8.92285 7.53078 8.87587 7.48731 8.81548 7.41374L8.44979 6.98907L8.34914 7.07601L8.26526 6.97904L8.36591 6.89209L8.20822 6.70818L8.28203 6.51758L8.50347 6.77506L8.64103 6.65802L8.7249 6.75499L8.58734 6.87203L8.9564 7.30339C8.98995 7.34352 9.01678 7.36693 9.03356 7.37027C9.0604 7.37696 9.08724 7.36693 9.12079 7.34018C9.13757 7.3268 9.15435 7.30674 9.17783 7.28333L9.18118 7.28668Z" fill="#53575A"/>
<path d="M9.42948 7.28001L8.83563 6.50757L8.96648 6.40726L9.05707 6.52429C9.047 6.44404 9.05036 6.38719 9.06378 6.34707C9.0772 6.30694 9.10069 6.27684 9.13759 6.25009C9.18457 6.21331 9.24496 6.1899 9.31541 6.17987L9.35902 6.33703C9.30869 6.34707 9.26844 6.36378 9.23154 6.38719C9.20134 6.4106 9.17785 6.4407 9.16779 6.47413C9.15437 6.51092 9.15437 6.54436 9.16779 6.58114C9.18792 6.64467 9.22147 6.70486 9.26173 6.76171L9.57375 7.16632L9.42948 7.27667V7.28001Z" fill="#53575A"/>
<path d="M10.2011 7.16628L10.1005 7.04924C10.1407 7.03587 10.1709 7.02249 10.1944 7.00577C10.228 6.98571 10.2514 6.9623 10.2649 6.93889C10.2783 6.91548 10.2883 6.88873 10.2883 6.85864C10.2883 6.84861 10.2783 6.79176 10.2581 6.68476L9.38248 6.09289L9.54688 5.98588L10.0434 6.33365C10.1038 6.37712 10.1676 6.42728 10.2313 6.48078C10.2078 6.40721 10.1877 6.3303 10.1709 6.25674L10.0501 5.65818L10.2011 5.55786L10.4058 6.60785C10.4326 6.74495 10.4427 6.83858 10.4427 6.89208C10.4427 6.94558 10.4293 6.98905 10.4058 7.02583C10.3823 7.06262 10.3521 7.09606 10.3118 7.12281C10.2816 7.14287 10.2481 7.15625 10.2045 7.16962L10.2011 7.16628Z" fill="#53575A"/>
<path d="M11.1405 5.58465C11.0701 5.43083 11.06 5.29707 11.107 5.18003C11.1573 5.063 11.2479 4.97271 11.3788 4.91252C11.5062 4.85233 11.6337 4.8423 11.7579 4.87908C11.882 4.91586 11.9759 5.00949 12.043 5.15328C12.1169 5.31045 12.1303 5.45089 12.08 5.56793C12.0296 5.68496 11.939 5.77525 11.8082 5.83544C11.6774 5.89563 11.5532 5.90566 11.4291 5.86888C11.3049 5.83209 11.211 5.73512 11.1405 5.58465ZM11.3083 5.50774C11.362 5.62143 11.4291 5.69499 11.5096 5.72509C11.5901 5.75518 11.674 5.75184 11.7545 5.71171C11.8317 5.67493 11.8854 5.61808 11.9122 5.53449C11.9424 5.45423 11.929 5.35392 11.8753 5.24357C11.8216 5.12987 11.7545 5.05965 11.674 5.02956C11.5935 4.99946 11.5096 5.00281 11.4291 5.04293C11.3519 5.07972 11.2982 5.13656 11.268 5.22016C11.2378 5.30041 11.2513 5.39739 11.3049 5.51108L11.3083 5.50774Z" fill="#53575A"/>
<path d="M12.5262 5.50774L12.2309 4.71524L12.08 4.77208L12.0363 4.6517L12.1873 4.59486L12.1504 4.49788C12.1236 4.42766 12.1135 4.36747 12.1202 4.32734C12.1269 4.28387 12.1471 4.24709 12.1806 4.21031C12.2142 4.17687 12.2611 4.14677 12.3249 4.12337C12.3719 4.10665 12.4289 4.08993 12.4893 4.0799L12.5161 4.22368C12.4792 4.23037 12.4457 4.2404 12.4121 4.25378C12.3618 4.27384 12.3282 4.29725 12.3148 4.324C12.3014 4.35075 12.3048 4.39422 12.3249 4.44772L12.3551 4.53132L12.5497 4.45776L12.5933 4.57814L12.3987 4.6517L12.6939 5.44421L12.5262 5.50774Z" fill="#53575A"/>
<path d="M13.6333 5.13316L13.3448 3.82235L13.536 3.78222L13.6535 4.32059L14.4016 4.15674L14.2842 3.61837L14.4754 3.57825L14.764 4.88906L14.5727 4.92918L14.4385 4.31056L13.6904 4.47441L13.8246 5.09303L13.6333 5.13316Z" fill="#53575A"/>
<path d="M15.7839 4.45434H15.9718C15.9517 4.56135 15.9047 4.64494 15.8275 4.70848C15.7537 4.76867 15.6564 4.80545 15.5357 4.81883C15.3847 4.83555 15.2605 4.80545 15.1565 4.72854C15.0559 4.65163 14.9955 4.5346 14.9787 4.37409C14.9619 4.20689 14.9955 4.07648 15.0794 3.97616C15.1632 3.87919 15.2773 3.82235 15.4216 3.80563C15.5591 3.79225 15.6766 3.82234 15.7806 3.89925C15.8812 3.97616 15.9416 4.09654 15.9584 4.2604V4.30387L15.17 4.38746C15.1901 4.49447 15.2303 4.57472 15.2974 4.62154C15.3645 4.6717 15.4384 4.69176 15.5256 4.68173C15.6598 4.66835 15.747 4.59144 15.7873 4.45434H15.7839ZM15.1632 4.25371L15.7571 4.19017C15.7403 4.10658 15.7101 4.04639 15.6665 4.0096C15.6028 3.9561 15.5256 3.93269 15.435 3.94273C15.3545 3.95276 15.2874 3.98285 15.2371 4.0397C15.1867 4.09654 15.1599 4.16677 15.1632 4.25371Z" fill="#53575A"/>
<path d="M16.9481 4.60153C16.8877 4.64835 16.8273 4.68513 16.7602 4.71188C16.6965 4.73529 16.6294 4.74866 16.5589 4.75201C16.4482 4.75201 16.3576 4.73194 16.2905 4.68178C16.2234 4.63163 16.1899 4.56475 16.1865 4.48115C16.1865 4.4243 16.1999 4.37415 16.2301 4.33068C16.2603 4.2872 16.3006 4.25377 16.3543 4.22701C16.408 4.20026 16.4885 4.18354 16.5992 4.17017C16.7468 4.1501 16.8542 4.13004 16.9213 4.10663V4.06316C16.9213 3.99628 16.9045 3.94947 16.871 3.92272C16.824 3.88594 16.7569 3.86587 16.6629 3.86922C16.5791 3.86922 16.5153 3.88594 16.4751 3.91269C16.4348 3.93944 16.4046 3.9896 16.3845 4.05982L16.2067 4.03976C16.2301 3.93609 16.2805 3.85918 16.3576 3.80903C16.4348 3.75887 16.5455 3.73546 16.6864 3.73212C16.7971 3.73212 16.8877 3.74549 16.9515 3.77559C17.0152 3.80568 17.0555 3.84247 17.0756 3.88928C17.0924 3.9361 17.1025 4.00297 17.1058 4.09326V4.31396C17.1125 4.46777 17.1192 4.56475 17.1259 4.60488C17.136 4.645 17.1494 4.68178 17.1729 4.72191H16.985C16.9649 4.69182 16.9515 4.65169 16.9448 4.60488L16.9481 4.60153ZM16.928 4.2337C16.8609 4.26045 16.7636 4.28052 16.6328 4.30058C16.5556 4.31061 16.5053 4.32399 16.4751 4.33736C16.4449 4.35074 16.4214 4.36746 16.4046 4.39087C16.3878 4.41427 16.3811 4.44102 16.3811 4.47112C16.3811 4.51793 16.4012 4.55472 16.4415 4.58147C16.4818 4.60822 16.5355 4.62159 16.6026 4.62159C16.6663 4.62159 16.7267 4.60822 16.777 4.58147C16.8307 4.55472 16.8676 4.52128 16.8944 4.47781C16.9213 4.43434 16.9313 4.37415 16.9313 4.29389V4.2337H16.928Z" fill="#53575A"/>
<path d="M17.4212 4.72854L17.4717 3.38763L17.6535 3.39432L17.603 4.73523L17.4212 4.72854Z" fill="#53575A"/>
<path d="M18.3204 4.6316L18.3338 4.77873C18.2835 4.78541 18.2398 4.78541 18.1996 4.78541C18.1358 4.78207 18.0855 4.76869 18.0486 4.74529C18.0117 4.72522 17.9882 4.69513 17.9748 4.66503C17.9614 4.6316 17.9614 4.56806 17.9681 4.47109L18.0083 3.91266L17.8775 3.90262L17.8876 3.77556L18.0184 3.78559L18.0352 3.54483L18.2231 3.45789L18.1996 3.79562L18.3808 3.809L18.3707 3.93606L18.1895 3.92269L18.1493 4.49115C18.1459 4.54465 18.1493 4.57809 18.1593 4.59481C18.1727 4.61822 18.2029 4.6316 18.2432 4.63494C18.2633 4.63494 18.2902 4.63494 18.3237 4.63494L18.3204 4.6316Z" fill="#53575A"/>
<path d="M18.5015 4.79211L18.6793 3.46124L18.8571 3.48465L18.7934 3.96283C18.8404 3.9227 18.894 3.89595 18.9511 3.88257C19.0081 3.86585 19.0685 3.86251 19.1322 3.87254C19.2463 3.88592 19.3302 3.92604 19.3872 3.98958C19.4443 4.05311 19.4644 4.15343 19.4443 4.29722L19.3637 4.90915L19.1859 4.88574L19.2664 4.27381C19.2765 4.19021 19.2665 4.12668 19.2295 4.08655C19.196 4.04643 19.1423 4.01967 19.0719 4.00964C18.9947 3.99961 18.9242 4.01299 18.8638 4.05311C18.8035 4.09324 18.7632 4.17015 18.7498 4.29053L18.6793 4.81887L18.5015 4.79546V4.79211Z" fill="#53575A"/>
<path d="M20.9507 5.14659C20.8802 5.17668 20.8098 5.1934 20.7393 5.20009C20.6689 5.20678 20.6018 5.20009 20.5347 5.18002C20.4273 5.14993 20.3501 5.10311 20.2965 5.03624C20.2461 4.96936 20.2327 4.89579 20.2528 4.81554C20.2663 4.76204 20.2965 4.71857 20.3367 4.68513C20.377 4.65169 20.4273 4.62828 20.4877 4.62159C20.5447 4.61156 20.6286 4.61491 20.7393 4.63497C20.8869 4.65838 20.9943 4.66841 21.0648 4.66506L21.0782 4.62494C21.095 4.5614 21.0916 4.51124 21.0681 4.4778C21.0346 4.42765 20.9742 4.39086 20.8836 4.36746C20.8031 4.34405 20.7393 4.34071 20.6923 4.35408C20.6454 4.36746 20.6018 4.40758 20.5649 4.47112L20.4005 4.40424C20.4541 4.31061 20.5212 4.25042 20.6085 4.22367C20.6957 4.19692 20.8098 4.20361 20.9473 4.24039C21.0547 4.27048 21.1352 4.30727 21.1889 4.35408C21.2426 4.4009 21.2694 4.44771 21.2761 4.49787C21.2795 4.54803 21.2694 4.6149 21.2459 4.70185L21.1889 4.91251C21.1486 5.05964 21.1252 5.15662 21.1218 5.19674C21.1218 5.23687 21.1218 5.28034 21.1352 5.32047L20.954 5.27031C20.944 5.23353 20.944 5.19006 20.9507 5.14324V5.14659ZM21.0346 4.78879C20.9641 4.79548 20.8635 4.78879 20.7326 4.77207C20.6554 4.76204 20.6018 4.75869 20.5716 4.76204C20.538 4.76538 20.5112 4.77541 20.4911 4.79548C20.4676 4.8122 20.4541 4.8356 20.4474 4.8657C20.434 4.90917 20.4441 4.95264 20.4743 4.98942C20.5045 5.0262 20.5514 5.05296 20.6185 5.07302C20.6823 5.08974 20.7393 5.09308 20.7997 5.08305C20.8567 5.07302 20.9037 5.04961 20.9406 5.01617C20.9775 4.98273 21.0044 4.92589 21.0279 4.84898L21.0446 4.79213L21.0346 4.78879Z" fill="#53575A"/>
<path d="M21.3701 5.40069L21.719 4.49115L21.87 4.548L21.8197 4.67841C21.8767 4.64163 21.9337 4.62156 21.9975 4.61822C22.0612 4.61487 22.125 4.62491 22.1954 4.65166C22.2491 4.67172 22.2961 4.69847 22.333 4.73191C22.3732 4.76535 22.4001 4.79879 22.4202 4.83557C22.437 4.87235 22.4471 4.91248 22.4437 4.9593C22.4437 5.00611 22.4236 5.06964 22.3934 5.15324L22.1787 5.71167L22.0075 5.64814L22.2189 5.0964C22.2458 5.02952 22.2558 4.97936 22.2525 4.94258C22.2491 4.90579 22.2357 4.87235 22.2088 4.84226C22.182 4.81216 22.1485 4.78876 22.1048 4.77538C22.0243 4.74529 21.9505 4.74194 21.8868 4.76869C21.823 4.79544 21.7693 4.86232 21.7257 4.97267L21.5345 5.46757L21.3667 5.40403L21.3701 5.40069Z" fill="#53575A"/>
<path d="M23.0744 6.14306L23.1315 6.03271C23.0811 6.05946 23.0275 6.07284 22.9704 6.07284C22.9134 6.07284 22.8597 6.05946 22.806 6.02937C22.6953 5.97252 22.6181 5.88558 22.5745 5.7652C22.5343 5.64482 22.5477 5.51106 22.6215 5.36728C22.6718 5.26696 22.7322 5.19339 22.8027 5.14324C22.8731 5.09308 22.9469 5.06632 23.0275 5.06298C23.1046 5.06298 23.1818 5.07636 23.2556 5.11648C23.3093 5.14324 23.3529 5.18002 23.3864 5.22349C23.42 5.26696 23.4435 5.31712 23.4535 5.36728L23.6716 4.93591L23.8327 5.01617L23.2254 6.21328L23.0744 6.13637V6.14306ZM22.7825 5.45422C22.7255 5.56791 22.7087 5.66154 22.7322 5.74514C22.7557 5.82539 22.8027 5.88224 22.8731 5.91902C22.9402 5.95246 23.014 5.9558 23.0912 5.92905C23.1684 5.9023 23.2321 5.83542 23.2858 5.72842C23.3462 5.60804 23.3663 5.50438 23.3462 5.42412C23.3227 5.34387 23.2757 5.28368 23.1986 5.24355C23.1315 5.21011 23.0576 5.20677 22.9838 5.23686C22.9067 5.26696 22.8396 5.33718 22.7825 5.45422Z" fill="#53575A"/>
<path d="M24.242 6.84522L24.7654 5.54779L24.9231 5.67152L24.554 6.50415C24.5171 6.59109 24.4769 6.67468 24.4332 6.75828L24.6379 6.60446L25.4196 6.06275L25.6042 6.20654L25.3492 6.87197C25.2888 7.03248 25.2183 7.18296 25.1445 7.31671C25.215 7.25987 25.2921 7.19633 25.3827 7.12946L26.0973 6.59109L26.2517 6.71147L25.1043 7.52069L24.9566 7.407L25.3458 6.41052L25.4062 6.2567C25.3592 6.29348 25.3156 6.32692 25.2754 6.35367L24.3963 6.96895L24.2386 6.84857L24.242 6.84522Z" fill="#53575A"/>
<path d="M26.245 8.19285L26.359 8.33998C26.2617 8.39014 26.1678 8.40351 26.0738 8.38345C25.9799 8.36339 25.8893 8.30989 25.8054 8.22294C25.7014 8.11594 25.6444 7.9989 25.641 7.87183C25.6377 7.74477 25.6947 7.62439 25.8088 7.51404C25.9296 7.397 26.0537 7.34015 26.1846 7.34684C26.3154 7.35353 26.4295 7.40703 26.5301 7.51069C26.6274 7.60767 26.6744 7.72136 26.6778 7.84843C26.6778 7.9755 26.6207 8.09588 26.5033 8.20957L26.4697 8.23966L25.9128 7.6712C25.839 7.75145 25.8054 7.83505 25.8054 7.91531C25.8054 7.9989 25.839 8.06912 25.8994 8.12931C25.9933 8.22629 26.1074 8.24635 26.2416 8.19285H26.245ZM26.0202 7.58426L26.4362 8.00893C26.4899 7.9454 26.5201 7.88187 26.5201 7.82502C26.5201 7.74142 26.4932 7.66786 26.4295 7.60432C26.3724 7.54748 26.3053 7.51404 26.2315 7.51069C26.1544 7.504 26.0839 7.53076 26.0202 7.58426Z" fill="#53575A"/>
<path d="M26.3087 8.73788L27.3354 7.86847L27.4528 8.00557L26.4261 8.87498L26.3087 8.73788Z" fill="#53575A"/>
<path d="M26.6509 9.15252L27.3219 8.63421L27.2246 8.50714L27.3253 8.42689L27.4226 8.55396L27.5031 8.49043C27.5635 8.44361 27.6138 8.41686 27.6574 8.41017C27.701 8.40349 27.7446 8.41017 27.7849 8.43358C27.8285 8.45699 27.8688 8.49377 27.909 8.54393C27.9392 8.58405 27.9694 8.63087 27.9996 8.68772L27.8688 8.75459C27.852 8.72116 27.8319 8.69106 27.8117 8.66431C27.7782 8.62084 27.748 8.59743 27.7145 8.59409C27.6843 8.5874 27.644 8.60412 27.597 8.6409L27.5266 8.6944L27.6541 8.85826L27.5534 8.93851L27.4259 8.77466L26.7549 9.29296L26.6442 9.15252H26.6509Z" fill="#53575A"/>
<path d="M27.4729 10.0888C27.3991 10.0654 27.3353 10.032 27.2783 9.99188C27.2213 9.95175 27.1743 9.90159 27.134 9.84474C27.0736 9.75111 27.0434 9.66417 27.0468 9.58392C27.0501 9.50032 27.0904 9.43679 27.1609 9.38997C27.2078 9.35988 27.2582 9.34316 27.3118 9.3465C27.3655 9.34985 27.4158 9.36322 27.4662 9.39666C27.5165 9.42676 27.5769 9.4836 27.6473 9.57054C27.7413 9.68424 27.8185 9.76115 27.8755 9.80796L27.9124 9.78455C27.9694 9.74777 27.9996 9.70764 28.003 9.66752C28.0097 9.60733 27.9896 9.54045 27.9359 9.46354C27.8889 9.39332 27.8419 9.34985 27.7983 9.32978C27.7547 9.30972 27.6943 9.31306 27.6239 9.33647L27.5433 9.17596C27.644 9.13918 27.7379 9.13918 27.8185 9.17596C27.9023 9.21275 27.9828 9.293 28.0634 9.41004C28.1271 9.50367 28.1607 9.58392 28.1707 9.65414C28.1808 9.72436 28.1707 9.77787 28.1405 9.81799C28.1103 9.85812 28.06 9.90159 27.9862 9.95175L27.8017 10.0755C27.6742 10.1624 27.5937 10.2193 27.5668 10.246C27.5366 10.2761 27.5132 10.3095 27.4964 10.3497L27.3924 10.1925C27.4091 10.1591 27.436 10.1256 27.4729 10.0955V10.0888ZM27.7715 9.8715C27.7144 9.83137 27.6406 9.76115 27.5534 9.66083C27.5031 9.60398 27.4628 9.5672 27.436 9.54714C27.4091 9.53042 27.3823 9.52039 27.3521 9.51704C27.3253 9.51704 27.2984 9.52373 27.2716 9.54045C27.2313 9.5672 27.2112 9.60398 27.2112 9.6508C27.2112 9.69761 27.228 9.75111 27.2649 9.80462C27.3018 9.85812 27.3454 9.89825 27.3957 9.92834C27.446 9.95844 27.4964 9.97181 27.5467 9.97181C27.597 9.97181 27.6541 9.94841 27.7212 9.90159L27.7715 9.86815V9.8715Z" fill="#53575A"/>
<path d="M27.6205 10.5603L28.466 10.0754L28.5465 10.2159L28.419 10.2894C28.4996 10.2894 28.5566 10.3028 28.5935 10.3195C28.6304 10.3396 28.6606 10.3664 28.6807 10.4031C28.7109 10.4566 28.7277 10.5168 28.7277 10.5904L28.5633 10.6138C28.5633 10.5636 28.5499 10.5202 28.5298 10.4834C28.5096 10.45 28.4828 10.4232 28.4526 10.4065C28.419 10.3898 28.3821 10.3831 28.3452 10.3898C28.2781 10.3998 28.2144 10.4232 28.154 10.46L27.7111 10.7141L27.6205 10.557V10.5603Z" fill="#53575A"/>
<path d="M28.5767 11.6906L28.6404 11.8678C28.5331 11.8845 28.4392 11.8678 28.3553 11.821C28.2714 11.7708 28.2043 11.6939 28.1506 11.5869C28.0835 11.4531 28.0701 11.3227 28.1036 11.2024C28.1406 11.082 28.2311 10.985 28.3754 10.9148C28.5264 10.8412 28.6639 10.8278 28.7847 10.8713C28.9055 10.9181 28.9994 11.0051 29.0632 11.1355C29.1236 11.2592 29.137 11.3796 29.0967 11.5033C29.0598 11.6237 28.9659 11.7207 28.8183 11.7942L28.778 11.8109L28.4291 11.0987C28.3351 11.1522 28.2748 11.2191 28.2513 11.2993C28.2278 11.3762 28.2345 11.4565 28.2747 11.5334C28.3351 11.6538 28.4358 11.7106 28.5801 11.6972L28.5767 11.6906ZM28.5566 11.0418L28.8183 11.5735C28.8921 11.5301 28.9357 11.4799 28.9558 11.4264C28.986 11.3495 28.9793 11.2692 28.9391 11.189C28.9021 11.1154 28.8518 11.0653 28.7814 11.0385C28.7109 11.0084 28.6371 11.0117 28.5566 11.0452V11.0418Z" fill="#53575A"/>
<path d="M10.8017 28.1125C10.8856 28.2095 10.9258 28.2596 10.9191 28.2697C10.9158 28.2797 10.9057 28.283 10.899 28.2797C10.8789 28.273 10.8621 28.273 10.8487 28.2797C10.7749 28.3332 10.7044 28.3767 10.6407 28.4068L10.2414 29.226C10.2414 29.226 10.2213 29.2427 10.1978 29.2327L10.1173 29.1959C10.1173 29.1959 10.0971 29.1759 10.1038 29.1625L10.4326 28.4837C10.3823 28.4971 10.3219 28.5138 10.2448 28.5305C10.2313 28.5238 10.2213 28.5138 10.2112 28.4971C10.2011 28.477 10.1877 28.4536 10.1743 28.4302C10.1676 28.4201 10.1676 28.4101 10.171 28.4034C10.2347 28.3901 10.2984 28.3733 10.3655 28.3533C10.4528 28.3299 10.5333 28.2964 10.6105 28.2529C10.6776 28.2162 10.7346 28.1727 10.7849 28.1292C10.7916 28.1225 10.795 28.1192 10.7983 28.1192L10.8017 28.1125ZM11.1741 29.1926L11.1104 29.3263L11.3486 29.44C11.3486 29.44 11.362 29.4534 11.3553 29.4668L11.3284 29.5203C11.3184 29.537 11.3117 29.5437 11.2982 29.5404L11.06 29.4267L10.9862 29.5805C10.9862 29.5805 10.9661 29.5972 10.946 29.5872L10.8654 29.547C10.8654 29.547 10.8453 29.527 10.852 29.5136L10.9258 29.3598L10.4125 29.1123C10.4125 29.1123 10.4025 29.0956 10.4125 29.0789L10.4394 29.0254C10.4394 29.0254 10.4528 29.0087 10.4662 29.012L10.6004 29.0755L10.7044 28.8615C10.7044 28.8615 10.7212 28.8482 10.738 28.8549L11.0936 29.0254L11.1406 28.9284C11.1406 28.9284 11.154 28.9184 11.1708 28.9284C11.2647 28.9752 11.3117 29.0053 11.305 29.0187C11.2982 29.0321 11.2882 29.0388 11.2781 29.0354C11.268 29.0321 11.258 29.0388 11.2479 29.0588L11.2311 29.0923L11.4358 29.1926C11.4358 29.1926 11.4492 29.206 11.4459 29.2193L11.419 29.2728C11.4123 29.2896 11.4023 29.2962 11.3888 29.2896L11.1842 29.1892L11.1741 29.1926ZM10.9963 27.6945C11.0802 27.7915 11.1204 27.8417 11.1137 27.8517C11.1104 27.8617 11.1003 27.8651 11.0936 27.8617C11.0735 27.855 11.0567 27.855 11.0433 27.8617C10.9493 27.9186 10.8621 27.952 10.7883 27.9687C10.748 27.9821 10.6776 27.9955 10.5803 28.0088C10.5668 28.0022 10.5568 27.9921 10.5501 27.9788C10.54 27.9553 10.5266 27.9319 10.5098 27.9085C10.5031 27.8985 10.5031 27.8918 10.5065 27.8851C10.5568 27.8784 10.6105 27.8684 10.6608 27.8584C10.7279 27.845 10.7916 27.8216 10.8487 27.7915C10.9023 27.7647 10.946 27.738 10.9829 27.7079C10.9896 27.7012 10.9929 27.6979 10.9963 27.6979V27.6945ZM10.795 29.0087L10.7312 29.1424L10.9762 29.2595L11.0399 29.1257L10.795 29.0087ZM10.9762 28.4201L11.5767 28.7111C11.5968 28.7211 11.6036 28.7345 11.5968 28.7478L11.4694 29.012C11.4694 29.012 11.4492 29.0287 11.4257 29.0187L10.8252 28.7278C10.8051 28.7178 10.7984 28.7044 10.8051 28.691L10.9325 28.4268C10.9325 28.4268 10.9527 28.4101 10.9762 28.4201ZM11.154 27.952L11.362 28.0523C11.3955 28.0122 11.4257 27.9721 11.4593 27.9252C11.466 27.9186 11.4761 27.9186 11.4895 27.9252L11.5868 28.0022C11.5868 28.0022 11.6069 28.0256 11.6002 28.0389C11.5935 28.0557 11.5801 28.059 11.5633 28.049C11.5499 28.049 11.5398 28.049 11.5297 28.059C11.5163 28.0791 11.5029 28.0958 11.4895 28.1159L11.768 28.2496C11.7881 28.2596 11.7948 28.273 11.7881 28.2864L11.6774 28.5138L11.7411 28.5439C11.7411 28.5439 11.7545 28.5606 11.7478 28.574L11.721 28.6275C11.721 28.6275 11.7076 28.6442 11.6941 28.6375L10.9359 28.273C10.9359 28.273 10.9225 28.2596 10.9292 28.2463L10.956 28.1928C10.956 28.1928 10.9695 28.176 10.9829 28.1794L11.1875 28.2797C11.2211 28.2362 11.258 28.1928 11.2949 28.1393L11.1037 28.0456C11.1037 28.0456 11.0902 28.0323 11.0969 28.0189L11.1238 27.9654C11.1238 27.9654 11.1372 27.9487 11.1506 27.952H11.154ZM11.3687 28.8749L11.4257 28.7545L11.0332 28.5639L10.9762 28.6843L11.3687 28.8749ZM11.7646 28.6643L12.2612 28.905C12.2612 28.905 12.2813 28.9251 12.2712 28.9418L12.2444 28.9953C12.2343 29.012 12.2242 29.0187 12.2075 29.012L12.0666 28.9418L11.6505 29.7978C11.6103 29.8781 11.5163 29.8814 11.362 29.8079L11.2982 29.7778C11.2982 29.7778 11.2915 29.7611 11.2982 29.741C11.3083 29.7176 11.3117 29.6841 11.3117 29.644V29.6373C11.3419 29.6607 11.3721 29.6808 11.4023 29.6975C11.4694 29.731 11.513 29.7276 11.5331 29.6875L11.9256 28.8783L11.7042 28.7713C11.7042 28.7713 11.6841 28.7512 11.6941 28.7345L11.721 28.681C11.7277 28.6642 11.7411 28.6609 11.7579 28.6676L11.7646 28.6643ZM11.315 28.3365L11.5465 28.4469L11.6203 28.2931L11.4257 28.1994C11.3855 28.2496 11.3486 28.2964 11.315 28.3365ZM12.0196 28.3365L12.3819 28.5104C12.3819 28.5104 12.4021 28.5305 12.392 28.5472L12.3652 28.6007C12.3551 28.6174 12.345 28.6241 12.3282 28.6174L11.9659 28.4436C11.9659 28.4436 11.9458 28.4235 11.9558 28.4068L11.9827 28.3533C11.9894 28.3365 12.0028 28.3332 12.0196 28.3399V28.3365Z" fill="#53575A"/>
<path d="M13.8045 28.8582L13.9521 28.9351C13.9521 28.9351 13.9722 28.9585 13.9689 28.9652C13.9689 28.9819 13.9554 28.9886 13.9387 28.9886C13.9219 28.9852 13.9085 28.9886 13.9018 29.0086C13.8581 29.0822 13.8246 29.1424 13.791 29.1892L14.3111 29.2995L14.3815 28.9718C14.3815 28.9718 14.3983 28.9518 14.4218 28.9585C14.5292 28.9819 14.5828 28.9986 14.5795 29.0153C14.5761 29.032 14.5661 29.0421 14.5526 29.0387C14.5392 29.0387 14.5291 29.0488 14.5224 29.0688L14.4654 29.333L15.1867 29.4835C15.2035 29.4868 15.2102 29.4968 15.2069 29.5102L15.1901 29.5838C15.1867 29.6038 15.1767 29.6105 15.1565 29.6072L14.4352 29.4567L14.348 29.8714L14.9653 30.0018C14.9821 30.0051 14.9888 30.0151 14.9854 30.0352L14.972 30.0954C14.9687 30.1121 14.9586 30.1221 14.9418 30.1188L14.3245 29.9884L14.2205 30.4799L15.0458 30.6538C15.0626 30.6572 15.0693 30.6672 15.066 30.6839L15.0492 30.7575C15.0458 30.7742 15.0358 30.7842 15.019 30.7809L13.1133 30.383C13.0965 30.3796 13.0898 30.3696 13.0932 30.3495L13.11 30.276C13.11 30.276 13.1234 30.2526 13.1402 30.2592L14.0661 30.4532L14.1702 29.9616L13.4992 29.8212C13.4824 29.8179 13.4757 29.8078 13.479 29.7878L13.4924 29.7276C13.4958 29.7108 13.5059 29.7008 13.5226 29.7042L14.1936 29.8446L14.2809 29.43L13.7038 29.3096C13.6602 29.3631 13.6166 29.4132 13.573 29.4601C13.5226 29.5069 13.469 29.5503 13.4153 29.5838C13.3951 29.5804 13.3817 29.5737 13.3683 29.5671C13.3415 29.5503 13.3113 29.5336 13.2844 29.5202C13.2744 29.5136 13.271 29.5069 13.271 29.5035C13.271 29.4935 13.2777 29.4902 13.2844 29.4868C13.3717 29.4366 13.4488 29.3664 13.526 29.2795C13.5696 29.2293 13.6132 29.1758 13.6501 29.1156C13.6904 29.0554 13.734 28.9752 13.781 28.8782C13.7877 28.8682 13.7944 28.8648 13.8011 28.8648L13.8045 28.8582Z" fill="#53575A"/>
<path d="M16.4549 29.6975L17.2266 29.6841C17.2434 29.6841 17.2534 29.6942 17.2534 29.7142V29.7744C17.2534 29.7945 17.2467 29.8045 17.23 29.8045H16.9414L16.9582 30.9314C16.9582 30.9481 16.9481 30.9548 16.9246 30.9548H16.8374C16.8139 30.9548 16.8005 30.9481 16.8005 30.9314L16.7837 29.8079L16.4583 29.8145C16.4415 29.8145 16.4315 29.8045 16.4315 29.7844V29.7243C16.4315 29.7042 16.4382 29.6942 16.4549 29.6942V29.6975ZM16.5388 29.9583L16.6999 29.9884C16.6999 29.9884 16.7233 30.0018 16.7233 30.0118C16.7233 30.0252 16.7166 30.0352 16.7032 30.0352C16.6797 30.0419 16.6663 30.0653 16.663 30.0988C16.6663 30.3262 16.663 30.4833 16.6495 30.5703C16.6361 30.6539 16.6193 30.7274 16.6026 30.791C16.6026 30.801 16.5925 30.8077 16.5757 30.8077C16.4885 30.7843 16.4449 30.7709 16.4449 30.7642C16.4784 30.6639 16.4952 30.5803 16.5053 30.5168C16.5153 30.3964 16.522 30.2158 16.522 29.9784C16.522 29.965 16.5288 29.9583 16.5388 29.9583ZM16.5556 29.3263L17.126 29.3163C17.1427 29.3163 17.1528 29.3263 17.1528 29.3464V29.4066C17.1528 29.4266 17.1461 29.4367 17.1293 29.4367L16.559 29.4467C16.5422 29.4467 16.5321 29.4367 16.5321 29.4166V29.3564C16.5321 29.3364 16.5388 29.3263 16.5556 29.3263ZM17.1025 29.955H17.183C17.2065 29.955 17.2165 29.965 17.2199 29.9851C17.2031 30.0553 17.1964 30.1255 17.1964 30.1924C17.1964 30.3763 17.23 30.5435 17.2836 30.6973C17.2836 30.7074 17.2769 30.714 17.2635 30.7174C17.1863 30.7241 17.1461 30.7274 17.136 30.7274L17.1226 30.7007C17.0924 30.4733 17.0756 30.2359 17.0723 29.9884C17.0723 29.9684 17.0823 29.955 17.1058 29.955H17.1025ZM17.3541 29.2895L18.4143 29.2728C18.4311 29.2728 18.4411 29.2829 18.4411 29.3029V29.3631C18.4411 29.3832 18.4344 29.3932 18.4176 29.3932L17.3575 29.4099C17.3407 29.4099 17.3306 29.3999 17.3306 29.3798V29.3196C17.3306 29.2996 17.3373 29.2895 17.3541 29.2895ZM17.3675 30.1121L18.4109 30.0954C18.4344 30.0954 18.4478 30.1021 18.4478 30.1155L18.4613 30.9046C18.4613 30.9046 18.4512 30.9281 18.4277 30.9281H18.3405C18.317 30.9281 18.3069 30.9214 18.3036 30.9046V30.8311L17.5051 30.8445V30.918C17.5051 30.918 17.495 30.9414 17.4715 30.9414H17.3843C17.3608 30.9414 17.3507 30.9347 17.3474 30.918L17.334 30.1389C17.334 30.1188 17.344 30.1055 17.3675 30.1055V30.1121ZM17.4447 29.5337L18.3204 29.5203C18.3438 29.5203 18.3573 29.527 18.3573 29.5403L18.364 29.9483C18.364 29.9483 18.3539 29.9717 18.3304 29.9717L17.4547 29.9851C17.4313 29.9851 17.4212 29.9784 17.4178 29.9617L17.4111 29.5537C17.4111 29.5537 17.4212 29.5303 17.4447 29.5303V29.5337ZM17.495 30.4164L17.8204 30.4098V30.2258L17.4917 30.2325V30.4164H17.495ZM17.5017 30.7308L17.8272 30.7241V30.5301L17.4984 30.5368V30.7308H17.5017ZM18.2063 29.8547V29.6407L17.5722 29.6507V29.8647L18.2063 29.8547ZM17.9748 30.2225V30.4064L18.2935 30.3997V30.2158L17.9748 30.2225ZM17.9815 30.7207L18.2969 30.714V30.5201L17.9781 30.5268V30.7207H17.9815Z" fill="#53575A"/>
<path d="M20.434 28.9485C20.434 28.9485 20.4139 28.9552 20.4005 28.9618C20.3468 28.9986 20.2797 29.0354 20.2025 29.0755C20.1891 29.0856 20.1723 29.0923 20.1589 29.0989L20.2461 29.42L20.6521 29.3096C20.6689 29.3063 20.6789 29.3096 20.6856 29.333L20.7024 29.3899C20.7091 29.4099 20.7024 29.42 20.6856 29.4266L20.3032 29.5303C20.3669 29.5972 20.4239 29.6473 20.4743 29.6841C20.538 29.7343 20.6387 29.7844 20.7762 29.8379C20.7896 29.8379 20.7997 29.8446 20.7997 29.8513C20.7997 29.8547 20.7997 29.8614 20.7896 29.8714C20.7796 29.8914 20.7628 29.9182 20.7427 29.9449C20.736 29.9583 20.7293 29.965 20.7225 29.965C20.7125 29.965 20.6991 29.965 20.6823 29.965C20.5883 29.9249 20.5011 29.8714 20.4206 29.8078C20.3904 29.7844 20.3636 29.761 20.3334 29.7343L20.5548 30.5502C20.5548 30.5502 20.5481 30.5736 20.5246 30.5803L20.4407 30.6037C20.4172 30.6104 20.4038 30.6037 20.4005 30.5937L20.1958 29.8313C20.1958 29.8313 20.1857 29.8614 20.1824 29.8747C20.1522 29.9583 20.1153 30.0419 20.075 30.1222C20.028 30.2058 19.9777 30.2793 19.924 30.3429C19.9073 30.3462 19.8938 30.3462 19.8838 30.3429C19.8502 30.3262 19.8167 30.3128 19.7831 30.3027C19.7764 30.2961 19.7731 30.2894 19.7731 30.286C19.8234 30.2292 19.867 30.179 19.8972 30.1289C19.9408 30.0653 19.9844 29.9817 20.0247 29.8814C20.0482 29.8212 20.0784 29.7209 20.1119 29.5838L19.6523 29.7075C19.6355 29.7109 19.6254 29.7075 19.6187 29.6841L19.602 29.6273C19.5952 29.6072 19.602 29.5972 19.6187 29.5905L20.0918 29.4634L20.0113 29.1658C19.9878 29.1759 19.9643 29.1859 19.9408 29.1959C19.8435 29.2327 19.7529 29.2628 19.6724 29.2829C19.6489 29.2895 19.6322 29.2829 19.6187 29.2695C19.5952 29.2528 19.5651 29.2327 19.5349 29.2126C19.5315 29.1993 19.5349 29.1892 19.555 29.1859L19.6825 29.1524C19.7831 29.1257 19.8704 29.0956 19.9442 29.0655C20.0113 29.0421 20.075 29.0153 20.1388 28.9786C20.2126 28.9418 20.2696 28.9017 20.3166 28.8548C20.3233 28.8481 20.3266 28.8448 20.33 28.8448C20.3468 28.8415 20.3602 28.8415 20.3669 28.8448C20.4676 28.8849 20.5179 28.9117 20.5212 28.9251C20.5246 28.9384 20.5212 28.9485 20.5011 28.9518H20.4374L20.434 28.9485ZM20.7729 28.9618C20.8802 28.9317 20.9373 28.9251 20.9406 28.9418C20.944 28.9585 20.9406 28.9685 20.9272 28.9752C20.9138 28.9819 20.9104 28.9953 20.9171 29.0153L21.1654 29.9416C21.1654 29.9416 21.1587 29.965 21.1386 29.9717L21.0547 29.9951C21.0312 30.0018 21.0178 29.9951 21.0144 29.9817L20.746 28.9919C20.746 28.9919 20.7527 28.9685 20.7729 28.9618ZM21.1587 28.6442L21.3466 28.6141C21.3667 28.6141 21.3801 28.6174 21.3801 28.6208C21.3835 28.6341 21.3734 28.6442 21.3533 28.6475C21.3264 28.6676 21.3197 28.701 21.3332 28.7545L21.6955 30.0954C21.7223 30.1924 21.6552 30.2626 21.4976 30.3027L21.3466 30.3429C21.3466 30.3429 21.3265 30.3362 21.3197 30.3128C21.3063 30.2894 21.2862 30.266 21.2526 30.2359C21.2493 30.2225 21.2526 30.2125 21.2627 30.2091C21.3332 30.2058 21.3935 30.1957 21.4472 30.1824C21.511 30.1656 21.5345 30.1355 21.5244 30.0921L21.1721 28.7846C21.1621 28.7445 21.152 28.7144 21.1453 28.6977C21.1386 28.6843 21.1319 28.6709 21.1319 28.6609C21.1319 28.6509 21.1386 28.6408 21.1621 28.6341L21.1587 28.6442Z" fill="#53575A"/>
<path d="M22.7624 27.9018C22.8597 27.8449 22.91 27.8249 22.9167 27.8383C22.9268 27.8516 22.9235 27.865 22.91 27.875C22.9 27.8851 22.9 27.8984 22.91 27.9185L22.9839 28.0489L23.3563 27.8349C23.3563 27.8349 23.3831 27.8316 23.3932 27.8483L23.4234 27.8984C23.4334 27.9152 23.4301 27.9285 23.4167 27.9386L22.5108 28.4569C22.5108 28.4569 22.484 28.4602 22.4739 28.4435L22.4437 28.39C22.4336 28.3733 22.437 28.3599 22.4504 28.3532L22.8463 28.1258L22.7389 27.9386C22.7389 27.9386 22.7389 27.9118 22.7591 27.9018H22.7624ZM22.7389 28.3699C22.8027 28.4067 22.8597 28.4435 22.9067 28.4803C22.9537 28.5104 22.9939 28.5438 23.0375 28.5873C23.0375 28.5906 23.004 28.6274 22.9268 28.6943C22.9033 28.6675 22.8698 28.6341 22.8295 28.6007C22.7826 28.5605 22.7289 28.5238 22.6685 28.4903C22.6618 28.4803 22.6853 28.4402 22.7389 28.3699ZM22.692 28.8448L23.6817 28.2763C23.6817 28.2763 23.7085 28.273 23.7153 28.2897L23.7454 28.3398C23.7555 28.3566 23.7522 28.3699 23.7387 28.3766L22.749 28.9451C22.749 28.9451 22.7222 28.9484 22.7121 28.9317L22.6819 28.8816C22.6819 28.8816 22.6752 28.8515 22.692 28.8448ZM22.9436 29.0053L23.675 28.5839C23.6951 28.5706 23.7085 28.5739 23.7153 28.5839L24.0373 29.139C24.0373 29.139 24.0373 29.1658 24.0206 29.1792L23.9434 29.2226C23.9233 29.2327 23.9098 29.2327 23.9031 29.2193L23.8595 29.1424L23.3395 29.44L23.3831 29.5169C23.3831 29.5169 23.3831 29.5436 23.3663 29.5537L23.2892 29.5971C23.269 29.6072 23.2556 29.6072 23.2455 29.5938L22.9268 29.0454C22.9167 29.0287 22.9235 29.0153 22.9436 29.0019V29.0053ZM23.2791 29.3363L23.7991 29.0387L23.6314 28.7511L23.1113 29.0487L23.2791 29.3363ZM23.2355 28.069L23.373 28.0422C23.3965 28.0389 23.4099 28.0422 23.4167 28.0523C23.42 28.0589 23.4167 28.069 23.4099 28.079C23.3965 28.0857 23.3932 28.0991 23.3965 28.1125C23.4133 28.2261 23.4167 28.3198 23.4066 28.3933C23.4066 28.4101 23.4066 28.4201 23.3999 28.4234C23.3898 28.4301 23.3764 28.4301 23.3596 28.4301C23.3261 28.4335 23.2959 28.4402 23.269 28.4468C23.2556 28.4468 23.2489 28.4468 23.2489 28.4468C23.2489 28.4468 23.2489 28.4402 23.2489 28.4335C23.2556 28.3666 23.259 28.3131 23.2556 28.2663C23.2556 28.2061 23.2455 28.1526 23.2321 28.0991C23.2288 28.0857 23.2321 28.0757 23.2355 28.0723V28.069ZM23.628 27.6276L24.3863 28.9417C24.3863 28.9417 24.3863 28.9685 24.3661 28.9819L24.289 29.0253C24.2688 29.0387 24.2554 29.0354 24.2454 29.0253L23.4401 27.6343C23.4401 27.6343 23.4401 27.6109 23.4603 27.5975L23.9937 27.2932C24.0172 27.2798 24.034 27.2731 24.0474 27.2731C24.091 27.2731 24.1179 27.2798 24.1212 27.2865V27.9051C24.1212 27.9051 24.1212 27.9285 24.1212 27.9352C24.1246 27.9419 24.1346 27.9486 24.1481 27.9519C24.2454 27.972 24.3393 28.0088 24.4299 28.0656C24.5238 28.1225 24.5943 28.196 24.6412 28.2796C24.6748 28.3365 24.6882 28.3933 24.6882 28.4535C24.6882 28.5137 24.6647 28.5706 24.6211 28.6174C24.5976 28.6575 24.544 28.701 24.4634 28.7478C24.4299 28.7679 24.4097 28.7679 24.3963 28.7478C24.3661 28.711 24.3359 28.6909 24.3124 28.6776C24.3057 28.6642 24.3091 28.6542 24.3225 28.6441L24.4198 28.604C24.4802 28.5706 24.5138 28.5304 24.5238 28.4836C24.5339 28.4435 24.5238 28.4034 24.5037 28.3599C24.4701 28.2997 24.4131 28.2429 24.3326 28.1894C24.242 28.1325 24.1279 28.089 23.9971 28.059C23.9803 28.059 23.9736 28.0556 23.9669 28.0489C23.9669 28.0422 23.9602 28.0322 23.9602 28.0188L23.9803 27.4236L23.618 27.6309L23.628 27.6276Z" fill="#53575A"/>
<path d="M28.7143 16.9639C28.7143 23.4042 23.4771 28.6241 17.0152 28.6241C10.5534 28.6241 5.31619 23.4042 5.31619 16.9639C5.31619 10.5235 10.5534 5.30371 17.0152 5.30371C23.4771 5.30371 28.7143 10.5235 28.7143 16.9639Z" fill="#54C0E8"/>
<path d="M22.3263 10.1457C21.7861 10.1324 21.2459 10.109 20.7158 10.129C20.5615 10.1658 20.4072 10.1892 20.2663 10.236C19.5583 10.4567 19.2463 10.7376 18.9981 11.4331C18.7733 12.667 19.2329 14.145 19.5583 15.3756C19.7831 15.817 19.9207 16.1347 20.4743 16.2684C20.6219 16.255 20.7102 16.2428 20.7393 16.2316C21.0312 15.8939 21.048 15.4859 20.9641 15.088C20.8702 14.7904 20.7896 14.4995 20.7058 14.2052C20.4172 13.4729 20.0348 12.7005 19.867 11.9648C19.867 11.6237 19.8737 11.6906 20.1086 11.4565C20.7091 11.1957 21.5177 11.3128 22.2189 11.1823C22.4269 11.0921 22.702 10.965 22.8195 10.7543C22.9671 10.3464 22.6014 10.2193 22.3229 10.1457H22.3263Z" fill="#002E6D"/>
<path d="M14.7271 11.2157C14.6499 11.1188 14.5761 11.0084 14.5023 10.9114C14.2071 10.6205 13.8682 10.47 13.5461 10.3229C13.4365 10.2962 13.3661 10.275 13.3347 10.2594C12.4926 10.0521 11.6237 9.98853 10.795 10.0353C10.6809 10.2995 10.8621 10.6941 11.0198 10.9315C11.3955 11.2559 11.7948 11.2592 12.3148 11.3161C12.9087 11.3395 13.677 11.2291 13.9353 11.9481C13.9756 12.784 13.6099 13.5799 13.3482 14.3757C13.1838 15.0378 12.8818 15.8069 13.7541 16.1045C14.0393 16.0811 14.093 16.0945 14.3144 15.9005C14.5895 15.3822 14.6566 14.8171 14.7606 14.242C14.8479 13.5933 14.8814 12.9646 14.9049 12.3393C14.9004 12.1208 14.8904 11.9012 14.8747 11.6805C14.821 11.5267 14.7707 11.3729 14.7237 11.2091L14.7271 11.2157Z" fill="#002E6D"/>
<path d="M22.8799 8.43696C22.5444 8.16611 22.125 8.09589 21.7492 8.04907C21.1856 8.06914 20.5716 8.13267 20.4944 8.78473C20.5213 9.13584 20.5011 9.14587 20.8467 9.34985C21.0782 9.38998 21.3231 9.4301 21.5982 9.45685C22.0713 9.41673 22.5477 9.45351 22.9369 9.09571C23.108 8.84158 23.0275 8.63091 22.8832 8.43696H22.8799Z" fill="#002E6D"/>
<path d="M11.2177 9.17264C11.5801 9.25624 11.8988 9.29302 12.3182 9.29636C12.6235 9.27964 12.9221 9.28633 13.2073 9.07232C13.526 8.59414 13.016 8.32663 12.6604 8.1795C11.9525 8.03571 10.8386 7.75817 10.6708 8.7279C10.7245 9.04557 10.9023 9.05226 11.2211 9.1693L11.2177 9.17264Z" fill="#002E6D"/>
<path d="M17.2433 7.70797V7.57087C17.2501 7.18966 17.2456 6.51977 17.2299 5.56118C17.2031 5.4174 16.9682 5.46755 16.8944 5.51102L16.8642 5.56787C16.8888 6.59333 16.9 7.28552 16.8978 7.64443C16.3543 7.62103 15.4048 7.50399 15.0693 8.03567C14.9619 8.35668 15.0055 8.31321 14.6902 8.43694V8.48041C14.7673 8.50047 14.8982 8.50047 15.019 8.50716L14.7841 8.65429L14.774 8.68773C14.8579 8.70779 14.9854 8.67435 15.0995 8.71448C15.5994 9.00206 16.0624 8.79808 16.6361 8.66767L16.9078 8.67435C16.9145 9.1124 16.9146 9.53374 16.9246 9.96176L16.777 10.0754C16.3308 10.236 15.9751 10.3731 15.643 10.7108C15.3846 11.189 15.492 11.5601 15.8778 11.948L15.908 11.9581V11.9815C16.106 12.0885 16.3073 12.2055 16.5589 12.2557C16.6898 12.2757 16.824 12.2858 16.9582 12.2925C16.9716 12.5566 16.9515 12.8141 16.9783 13.1184C16.0557 13.309 15.3712 13.6066 15.7 14.69C15.7571 14.8004 15.8175 14.9174 15.8778 15.0311C16.0926 15.2852 16.3274 15.4257 16.6394 15.5895C16.7871 15.5996 16.9045 15.7166 17.0152 15.7367C17.0253 16.0343 17.0387 16.2884 17.0353 16.479C17.0924 16.4857 17.1494 16.489 17.2064 16.4857C17.2635 16.4857 17.3205 16.479 17.3742 16.4723C17.3675 16.3954 17.3708 15.72 17.4077 15.6497C17.7332 15.5227 18.0553 15.4591 18.3773 15.2652C18.5954 15.0378 18.6692 14.8338 18.6994 14.5396L18.6088 14.573C18.4814 14.7502 18.3706 14.8907 18.1928 15.0278C18.0351 15.0813 17.5151 15.302 17.3843 15.1849C17.3708 14.68 17.3138 14.145 17.3339 13.6668C17.8036 13.5698 18.1693 13.513 18.4679 13.0783C18.7464 12.4797 18.4881 12.1119 17.9781 11.8544C17.7567 11.8042 17.4581 11.7474 17.24 11.6972C17.2165 11.3027 17.2098 10.9449 17.1964 10.5703C17.3172 10.5135 17.609 10.4332 17.9244 10.3162C18.4176 10.0788 18.6961 9.86478 18.8336 9.31304C18.8404 9.13581 18.8437 8.98199 18.8202 8.84155C18.6088 8.18614 17.8036 7.8551 17.2333 7.70797H17.2433ZM15.9349 8.21624L15.7504 8.29649C15.6698 8.19952 15.6564 8.19952 15.5558 8.19952L15.4987 8.37675C15.4383 8.39235 15.3735 8.40461 15.3041 8.41353C15.1464 8.33996 15.1901 8.29315 15.2572 8.20621C15.4987 8.06911 15.6463 8.05573 15.9349 8.13933V8.21624ZM16.9179 11.6805L16.777 11.6538C16.6394 11.6237 16.4918 11.5802 16.3912 11.5501C16.3106 11.4921 16.2603 11.4643 16.2402 11.4665V11.4431L16.2167 11.4331C15.9886 10.9984 16.3375 10.8613 16.673 10.7108L16.9146 10.6506C16.9313 10.8713 16.9246 10.9549 16.9146 11.6839L16.9179 11.6805ZM16.9917 15.1883L16.8642 15.1682C16.3744 15.0311 15.9315 14.6098 16.106 14.1015C16.2838 13.824 16.6327 13.7303 16.9582 13.6935C16.9817 14.5228 17.0118 14.5864 16.9951 15.1883H16.9917ZM17.8137 12.5366C17.8875 12.677 17.8842 12.8308 17.7533 12.9545C17.5856 13.0448 17.4715 13.0682 17.3205 13.105L17.2836 13.0883C17.2668 12.8241 17.2836 12.5432 17.2836 12.2958C17.4816 12.3025 17.6627 12.3426 17.8171 12.5366H17.8137ZM17.7835 9.4702L17.7936 9.49361C17.5822 9.65077 17.4245 9.72768 17.2098 9.81797C17.193 9.43342 17.1863 9.06559 17.1997 8.69442C17.4648 8.6777 17.854 8.85827 17.9244 9.08565C17.9311 9.20603 17.9177 9.39329 17.7802 9.47355L17.7835 9.4702Z" fill="#002E6D"/>
<path d="M17.8943 22.2305C17.8943 21.8426 17.5789 21.5283 17.1897 21.5283C16.8005 21.5283 16.4851 21.8426 16.4851 22.2305C16.4851 22.6184 16.8005 22.9328 17.1897 22.9328C17.5789 22.9328 17.8943 22.6184 17.8943 22.2305ZM20.5984 20.4917C20.6253 20.4683 20.6286 20.4248 20.6051 20.3981C20.5817 20.3713 20.5414 20.3613 20.5112 20.3814C20.4944 20.3914 20.2797 20.5318 19.971 20.7993C19.6288 19.9467 19.2195 19.2277 18.8169 18.6459C18.3304 17.9403 17.8238 17.3685 17.3742 16.9338C17.6561 16.6094 17.958 16.2884 18.2834 15.9741C18.3103 15.9507 18.3136 15.9072 18.2902 15.8805C18.2667 15.8537 18.2264 15.847 18.1962 15.8637C18.1895 15.8704 17.7466 16.1513 17.1394 16.7098C16.5321 16.148 16.0926 15.8671 16.0825 15.8637C16.0523 15.8437 16.0121 15.8504 15.9886 15.8805C15.9651 15.9072 15.9685 15.9507 15.9953 15.9741C16.3207 16.2884 16.6227 16.6094 16.9045 16.9338C16.4583 17.3718 15.9483 17.9403 15.4652 18.6459C15.076 19.2143 14.6734 19.9132 14.3379 20.7392C14.0695 20.5084 13.885 20.3914 13.8682 20.3814C13.838 20.3613 13.7977 20.368 13.7743 20.3981C13.7508 20.4248 13.7541 20.4683 13.781 20.4917C13.9454 20.6489 14.0997 20.8127 14.244 20.9732C13.6233 22.5984 13.2609 24.6883 13.6669 27.233C13.6736 27.2698 13.7072 27.2965 13.7441 27.2899C13.781 27.2865 13.8078 27.2531 13.8045 27.2163C13.8011 27.1762 13.6132 24.6181 14.7103 21.5417C16.8039 24.3238 16.5757 27.4704 16.5724 27.5039C16.5724 27.5407 16.5959 27.5741 16.6328 27.5808C16.6697 27.5875 16.7032 27.5607 16.7099 27.5206C17.1125 25.0093 16.3174 23.2003 15.5793 22.1269C15.3276 21.7624 15.0693 21.4548 14.8311 21.2073C15.3277 19.9032 16.0624 18.5222 17.136 17.208C18.2298 18.5456 18.9712 19.9533 19.4678 21.2775C19.2463 21.5116 19.0148 21.7958 18.7867 22.1269C18.0486 23.2003 17.2568 25.0093 17.6594 27.5206C17.6661 27.5574 17.6997 27.5841 17.7366 27.5808C17.7735 27.5774 17.8003 27.544 17.797 27.5039C17.797 27.4671 17.5688 24.384 19.5953 21.6253C20.6588 24.6649 20.4743 27.1762 20.4709 27.2163C20.4709 27.2531 20.4944 27.2865 20.5313 27.2899C20.5682 27.2932 20.6018 27.2698 20.6085 27.233C21.0111 24.7251 20.6622 22.6586 20.0583 21.0468C20.2227 20.8595 20.4005 20.6723 20.5884 20.4917H20.5984ZM13.9722 18.7796C13.9722 18.1744 13.479 17.6828 12.8717 17.6828C12.2645 17.6828 11.7713 18.1744 11.7713 18.7796C11.7713 19.3849 12.2645 19.8764 12.8717 19.8764C13.479 19.8764 13.9722 19.3849 13.9722 18.7796ZM7.54394 15.8604C7.51375 15.8403 7.47349 15.847 7.45 15.8771C7.42652 15.9039 7.42987 15.9473 7.45671 15.9708C12.4088 20.7325 11.9391 27.1528 11.9323 27.2163C11.9323 27.2531 11.9558 27.2865 11.9927 27.2899C12.0296 27.2932 12.0632 27.2698 12.0699 27.233C12.7107 23.2304 11.4459 20.3546 10.2716 18.6425C9.00003 16.79 7.55401 15.8704 7.54059 15.8604H7.54394ZM22.5175 18.7796C22.5175 18.4854 22.4034 18.2112 22.1954 18.0038C21.9874 17.7965 21.7123 17.6828 21.4171 17.6828C20.8098 17.6828 20.3166 18.1744 20.3166 18.7796C20.3166 19.3849 20.8098 19.8764 21.4171 19.8764C22.0243 19.8764 22.5175 19.3849 22.5175 18.7796ZM26.8388 15.8771C26.8153 15.8504 26.7751 15.8437 26.7449 15.8604C26.7315 15.8704 25.2854 16.79 24.0139 18.6425C22.8396 20.3513 21.5747 23.2304 22.2156 27.233C22.2223 27.2698 22.2558 27.2965 22.2927 27.2899C22.3296 27.2865 22.3565 27.2531 22.3531 27.2163C22.3464 27.1528 21.8767 20.7291 26.8287 15.9708C26.8556 15.9473 26.8589 15.9039 26.8355 15.8771H26.8388Z" fill="#FFC629"/>
<path d="M33.5321 28.4603V23.0699H34.7098L36.1122 26.8853L36.394 27.6845C36.4644 27.4872 36.5685 27.1963 36.7094 26.8217L38.1252 23.0732H39.1787V28.4636H38.4238V23.9393L36.6993 28.4636H35.9947L34.2803 23.8557V28.4636H33.5254L33.5321 28.4603Z" fill="#656464"/>
<path d="M40.4335 23.829V23.0699H41.1582V23.829H40.4335ZM40.4335 28.4603V24.5512H41.1582V28.4603H40.4335Z" fill="#656464"/>
<path d="M42.3693 28.4602V24.5512H43.0269V25.103C43.1846 24.889 43.3758 24.7284 43.604 24.6214C43.8321 24.5144 44.0904 24.4609 44.3857 24.4609C44.6138 24.4609 44.8252 24.4944 45.0198 24.5613C45.2144 24.6281 45.3721 24.7184 45.4895 24.8254C45.6103 24.9358 45.6975 25.0762 45.7579 25.2501C45.8183 25.424 45.8451 25.6915 45.8451 26.0526V28.4569H45.1204V26.076C45.1204 25.7885 45.0869 25.5778 45.0231 25.444C44.956 25.3103 44.8554 25.21 44.7145 25.1364C44.5769 25.0628 44.4159 25.0261 44.2314 25.0261C43.8824 25.0261 43.6073 25.123 43.4026 25.317C43.198 25.5109 43.094 25.8453 43.094 26.3168V28.4536H42.3693V28.4602Z" fill="#656464"/>
<path d="M47.063 23.829V23.0699H47.7877V23.829H47.063ZM47.063 28.4603V24.5512H47.7877V28.4603H47.063Z" fill="#656464"/>
<path d="M48.7204 27.2966L49.4451 27.1996C49.4887 27.4738 49.6028 27.6778 49.794 27.8115C49.9853 27.9453 50.2369 28.0122 50.5489 28.0122C50.8609 28.0122 51.1059 27.952 51.277 27.8349C51.4481 27.7179 51.5353 27.5674 51.5353 27.3869C51.5353 27.2297 51.4615 27.1093 51.3139 27.0224C51.2132 26.9622 50.9649 26.8886 50.5758 26.8017C50.0121 26.6713 49.633 26.5609 49.4451 26.4706C49.2539 26.3803 49.1062 26.2566 49.0022 26.1061C48.8982 25.9557 48.8446 25.7818 48.8446 25.5878C48.8446 25.2534 48.9888 24.9826 49.274 24.7753C49.5592 24.5679 49.9551 24.4609 50.4617 24.4609C50.7804 24.4609 51.0589 24.5044 51.3005 24.5913C51.542 24.6783 51.7265 24.792 51.854 24.9391C51.9815 25.0829 52.0721 25.2902 52.1191 25.5611L51.4112 25.6581C51.3441 25.2233 51.0354 25.0026 50.4818 25.0026C50.1665 25.0026 49.9316 25.0495 49.7806 25.1431C49.6263 25.2367 49.5491 25.3571 49.5491 25.5042C49.5491 25.6514 49.6229 25.7617 49.7706 25.8453C49.8578 25.8955 50.1228 25.9724 50.559 26.0794C51.1595 26.2232 51.5487 26.3369 51.7265 26.4205C51.9044 26.5041 52.0419 26.6211 52.1392 26.7682C52.2365 26.9154 52.2868 27.0892 52.2868 27.2899C52.2868 27.6644 52.1291 27.9687 51.8104 28.1994C51.495 28.4301 51.0622 28.5472 50.512 28.5472C49.4854 28.5472 48.8882 28.1292 48.7238 27.2932L48.7204 27.2966Z" fill="#656464"/>
<path d="M54.8467 27.865L54.9441 28.4502C54.7428 28.4903 54.5649 28.5104 54.4039 28.5104C54.1523 28.5104 53.9476 28.4736 53.7933 28.3967C53.6389 28.3231 53.5349 28.2195 53.4745 28.089C53.4175 27.9586 53.3873 27.7012 53.3873 27.3133V25.0662H52.8606V24.5479H53.3873V23.5848L54.112 23.1869V24.5479H54.8434V25.0662H54.112V27.35C54.112 27.5607 54.1321 27.6978 54.1757 27.758C54.2395 27.8449 54.3536 27.8918 54.5247 27.8918C54.6052 27.8918 54.7126 27.8817 54.8434 27.8617L54.8467 27.865Z" fill="#656464"/>
<path d="M55.6318 28.4602V24.5512H56.2894V25.1397C56.4572 24.8655 56.6115 24.6816 56.749 24.5947C56.89 24.5044 57.0443 24.4609 57.2187 24.4609C57.4603 24.4609 57.7086 24.5312 57.9636 24.6716L57.7153 25.2869C57.5341 25.1933 57.3597 25.1431 57.1886 25.1431C57.0342 25.1431 56.8933 25.1832 56.7658 25.2635C56.6383 25.3437 56.5477 25.4574 56.4941 25.6012C56.4035 25.8553 56.3565 26.1229 56.3565 26.4071V28.4536H55.6318V28.4602Z" fill="#656464"/>
<path d="M58.4568 29.965L58.383 29.3397C58.544 29.3798 58.6815 29.3999 58.7956 29.3999C58.9499 29.3999 59.0774 29.3765 59.1747 29.3296C59.2754 29.2828 59.3559 29.2093 59.423 29.1123C59.4465 29.0788 59.5404 28.8582 59.7082 28.4569L58.0877 24.5512H58.8694L59.7619 26.8017C59.8726 27.0825 59.9766 27.3835 60.0705 27.7012C60.1511 27.4002 60.2517 27.1026 60.3658 26.815L61.2784 24.5512H62.0064L60.3825 28.5271C60.1678 29.0421 60.0001 29.3865 59.8793 29.5604C59.7585 29.7343 59.6176 29.858 59.4599 29.9349C59.3056 30.0118 59.1278 30.0486 58.9298 30.0486C58.7923 30.0486 58.6346 30.0218 58.4635 29.965H58.4568Z" fill="#656464"/>
<path d="M64.8414 26.5074C64.8414 25.8319 65.0293 25.3236 65.4084 24.9792C65.7876 24.6348 66.2673 24.4642 66.8477 24.4642C67.4282 24.4642 67.8945 24.6348 68.277 24.9792C68.6595 25.3236 68.8507 25.8185 68.8507 26.4672C68.8507 27.1694 68.6628 27.6911 68.2837 28.0355C67.9079 28.3799 67.4282 28.5505 66.8444 28.5505C66.2606 28.5505 65.7943 28.3766 65.4118 28.0322C65.0293 27.6878 64.8381 27.1795 64.8381 26.504L64.8414 26.5074ZM65.5896 26.5074C65.5896 27.0156 65.7137 27.3935 65.9587 27.6409C66.2036 27.8884 66.5089 28.0121 66.8712 28.0121C67.2101 28.0121 67.502 27.8884 67.7469 27.6376C67.9918 27.3868 68.1126 27.0123 68.1126 26.5074C68.1126 26.0024 67.9885 25.6246 67.7435 25.3771C67.4986 25.1297 67.1933 25.0059 66.831 25.0059C66.4888 25.0059 66.1969 25.1297 65.952 25.3805C65.7104 25.6279 65.5896 26.0058 65.5896 26.5074Z" fill="#656464"/>
<path d="M70.0115 28.4603V25.0696H69.3707V24.5512H70.0115V24.1366C70.0115 23.8323 70.0551 23.6016 70.139 23.4511C70.2229 23.2973 70.3537 23.1802 70.5316 23.1C70.706 23.0197 70.9275 22.9796 71.1959 22.9796C71.4039 22.9796 71.6287 23.003 71.8769 23.0465L71.7696 23.625C71.6186 23.6016 71.4777 23.5882 71.3435 23.5882C71.1288 23.5882 70.9711 23.6317 70.8805 23.7153C70.7866 23.7989 70.7396 23.9594 70.7396 24.1934V24.5512H71.5784V25.0696H70.7396V28.4603H70.0149H70.0115Z" fill="#656464"/>
<path d="M74.7019 28.4603V23.0699H75.487V25.2802H78.5568V23.0699H79.3419V28.4603H78.5568V25.9189H75.487V28.4603H74.7019Z" fill="#656464"/>
<path d="M83.5928 27.2063L84.341 27.2899C84.2168 27.7079 83.992 28.0222 83.6666 28.2329C83.3412 28.4469 82.9352 28.5505 82.4554 28.5505C81.8482 28.5505 81.3583 28.3766 80.9826 28.0322C80.6068 27.6878 80.4189 27.1896 80.4189 26.5375C80.4189 25.8854 80.6068 25.3471 80.9859 24.9926C81.365 24.6382 81.8448 24.4609 82.4252 24.4609C83.0056 24.4609 83.4418 24.6348 83.8109 24.9859C84.1799 25.337 84.3678 25.842 84.3678 26.5041V26.6813H81.1637C81.1939 27.1227 81.3281 27.4537 81.5731 27.6778C81.8146 27.9018 82.1099 28.0122 82.4588 28.0122C83.0023 28.0122 83.3814 27.7446 83.5961 27.2063H83.5928ZM81.2073 26.1396H83.5995C83.5659 25.7985 83.4686 25.541 83.3076 25.3738C83.0761 25.1297 82.7775 25.006 82.4185 25.006C82.0931 25.006 81.818 25.1097 81.5865 25.3136C81.3583 25.5176 81.2308 25.7952 81.2073 26.1429V26.1396Z" fill="#656464"/>
<path d="M88.1523 27.9787C87.9107 28.1659 87.6557 28.3097 87.394 28.4067C87.1323 28.5037 86.8606 28.5505 86.5788 28.5505C86.1325 28.5505 85.7769 28.4502 85.5119 28.2495C85.2468 28.0489 85.1126 27.778 85.1126 27.4336C85.1126 27.2062 85.1764 27.0056 85.3005 26.8317C85.4246 26.6578 85.5957 26.5207 85.8138 26.4238C86.0319 26.3268 86.3573 26.2532 86.7968 26.2064C87.3873 26.1429 87.8201 26.0693 88.0953 25.9824V25.8118C88.0986 25.541 88.0349 25.3537 87.9074 25.2434C87.7262 25.0862 87.4511 25.0059 87.0787 25.0059C86.7432 25.0059 86.4915 25.0594 86.3238 25.1631C86.156 25.2668 86.0353 25.4674 85.9547 25.755L85.23 25.658C85.3307 25.24 85.5387 24.9391 85.8474 24.7485C86.156 24.5579 86.6023 24.4642 87.1793 24.4642C87.6289 24.4642 87.9812 24.5278 88.2362 24.6548C88.4911 24.7819 88.6522 24.9391 88.7193 25.123C88.7864 25.3069 88.8199 25.5811 88.8199 25.9389V26.8217C88.8199 27.4403 88.8367 27.8315 88.8669 27.992C88.8971 28.1526 88.9608 28.3097 89.0548 28.4602H88.2999C88.2227 28.3264 88.1724 28.1659 88.1489 27.9787H88.1523ZM88.0953 26.4973C87.8302 26.5943 87.4343 26.6779 86.9076 26.7448C86.6022 26.7849 86.3875 26.8284 86.2667 26.8785C86.146 26.9287 86.052 26.9989 85.9849 27.0925C85.9178 27.1862 85.8843 27.2898 85.8843 27.4136C85.8843 27.6008 85.9614 27.7513 86.1158 27.8616C86.2701 27.9753 86.4848 28.0288 86.7566 28.0288C87.0283 28.0288 87.2531 27.9787 87.4645 27.8784C87.6759 27.778 87.8336 27.6443 87.9409 27.4737C88.0449 27.3065 88.0986 27.0591 88.0986 26.7381V26.494L88.0953 26.4973Z" fill="#656464"/>
<path d="M90.0345 28.4603V23.0699H90.7592V28.4603H90.0345Z" fill="#656464"/>
<path d="M93.6042 27.865L93.7015 28.4502C93.5002 28.4903 93.3224 28.5104 93.1614 28.5104C92.9097 28.5104 92.7051 28.4736 92.5507 28.3967C92.3964 28.3231 92.2924 28.2195 92.232 28.089C92.175 27.9586 92.1448 27.7012 92.1448 27.3133V25.0662H91.618V24.5479H92.1448V23.5848L92.8695 23.1869V24.5479H93.6009V25.0662H92.8695V27.35C92.8695 27.5607 92.8896 27.6978 92.9332 27.758C92.997 27.8449 93.111 27.8918 93.2821 27.8918C93.3627 27.8918 93.47 27.8817 93.6009 27.8617L93.6042 27.865Z" fill="#656464"/>
<path d="M94.3893 28.4603V23.0699H95.114V24.9993C95.2851 24.8187 95.4764 24.685 95.6911 24.5947C95.9058 24.5044 96.144 24.4609 96.4023 24.4609C96.8586 24.4609 97.2176 24.568 97.4827 24.7887C97.7477 25.006 97.8786 25.4039 97.8786 25.9824V28.4603H97.1539V25.9824C97.1539 25.6447 97.0733 25.4006 96.9123 25.2535C96.7513 25.1063 96.5298 25.0328 96.248 25.0328C95.9326 25.0328 95.6642 25.1264 95.4428 25.317C95.2214 25.5042 95.1106 25.842 95.1106 26.3235V28.4636H94.386L94.3893 28.4603Z" fill="#656464"/>
<path d="M104.273 27.9787C104.032 28.1659 103.777 28.3097 103.515 28.4067C103.253 28.5037 102.982 28.5505 102.7 28.5505C102.254 28.5505 101.898 28.4502 101.633 28.2495C101.368 28.0489 101.234 27.778 101.234 27.4336C101.234 27.2062 101.297 27.0056 101.421 26.8317C101.546 26.6578 101.717 26.5207 101.935 26.4238C102.153 26.3268 102.478 26.2532 102.918 26.2064C103.508 26.1429 103.941 26.0693 104.216 25.9824V25.8118C104.22 25.541 104.156 25.3537 104.028 25.2434C103.847 25.0862 103.572 25.0059 103.2 25.0059C102.864 25.0059 102.613 25.0594 102.445 25.1631C102.277 25.2668 102.156 25.4674 102.076 25.755L101.351 25.658C101.452 25.24 101.66 24.9391 101.968 24.7485C102.277 24.5579 102.723 24.4642 103.3 24.4642C103.75 24.4642 104.102 24.5278 104.357 24.6548C104.612 24.7819 104.773 24.9391 104.84 25.123C104.907 25.3102 104.941 25.5811 104.941 25.9389V26.8217C104.941 27.4403 104.958 27.8315 104.988 27.992C105.018 28.1526 105.082 28.3097 105.176 28.4602H104.421C104.344 28.3264 104.293 28.1659 104.27 27.9787H104.273ZM104.216 26.4973C103.951 26.5943 103.555 26.6779 103.029 26.7448C102.723 26.7849 102.509 26.8284 102.388 26.8785C102.267 26.9287 102.173 26.9989 102.106 27.0925C102.039 27.1862 102.005 27.2898 102.005 27.4136C102.005 27.6008 102.082 27.7513 102.237 27.8616C102.391 27.9753 102.606 28.0288 102.878 28.0288C103.149 28.0288 103.374 27.9787 103.586 27.8784C103.797 27.778 103.955 27.6443 104.062 27.4737C104.166 27.3065 104.22 27.0591 104.22 26.7381V26.494L104.216 26.4973Z" fill="#656464"/>
<path d="M106.179 28.4602V24.5512H106.837V25.103C106.994 24.889 107.185 24.7284 107.414 24.6214C107.642 24.5144 107.9 24.4609 108.195 24.4609C108.423 24.4609 108.635 24.4944 108.829 24.5613C109.024 24.6281 109.182 24.7184 109.299 24.8254C109.42 24.9358 109.507 25.0762 109.568 25.2501C109.628 25.424 109.655 25.6915 109.655 26.0526V28.4569H108.93V26.076C108.93 25.7885 108.897 25.5778 108.833 25.444C108.766 25.3103 108.665 25.21 108.524 25.1364C108.387 25.0628 108.222 25.0261 108.041 25.0261C107.692 25.0261 107.417 25.123 107.212 25.317C107.008 25.5109 106.904 25.8453 106.904 26.3168V28.4536H106.179V28.4602Z" fill="#656464"/>
<path d="M113.647 28.4602V27.972C113.516 28.1593 113.349 28.303 113.141 28.4034C112.933 28.5003 112.711 28.5505 112.473 28.5505C111.966 28.5505 111.53 28.3733 111.161 28.0155C110.792 27.6577 110.608 27.1561 110.608 26.5074C110.608 26.0626 110.688 25.6848 110.853 25.3771C111.017 25.0661 111.235 24.8388 111.51 24.6883C111.782 24.5378 112.087 24.4642 112.423 24.4642C112.661 24.4642 112.882 24.5111 113.087 24.6047C113.292 24.6983 113.459 24.8287 113.597 24.9959V23.0732H114.328V28.4636H113.651L113.647 28.4602ZM111.356 26.5107C111.356 27.019 111.473 27.3935 111.708 27.641C111.943 27.8884 112.215 28.0088 112.527 28.0088C112.839 28.0088 113.1 27.8917 113.329 27.6543C113.553 27.4169 113.667 27.0625 113.667 26.5843C113.667 26.0359 113.553 25.6346 113.329 25.3805C113.104 25.1297 112.819 25.0026 112.473 25.0026C112.168 25.0026 111.906 25.123 111.688 25.3671C111.47 25.6112 111.359 25.9924 111.359 26.5107H111.356Z" fill="#656464"/>
<path d="M119.106 28.4603L117.546 23.0699H118.344L119.243 26.6044C119.337 26.9655 119.421 27.3334 119.495 27.7079L119.76 26.7114L120.891 23.0732H121.83L122.676 25.8019C122.884 26.4673 123.035 27.1026 123.139 27.7112C123.213 27.3601 123.31 26.9689 123.431 26.5375L124.36 23.0732H125.148L123.525 28.4636H122.77L121.522 24.3573L121.334 23.7253C121.277 23.9594 121.22 24.17 121.163 24.3573L119.908 28.4636H119.109L119.106 28.4603Z" fill="#656464"/>
<path d="M128.648 27.2063L129.396 27.2899C129.272 27.7079 129.047 28.0222 128.721 28.2329C128.396 28.4469 127.993 28.5505 127.51 28.5505C126.903 28.5505 126.413 28.3766 126.037 28.0322C125.662 27.6878 125.474 27.1896 125.474 26.5375C125.474 25.8854 125.662 25.3471 126.041 24.9926C126.42 24.6382 126.9 24.4609 127.48 24.4609C128.061 24.4609 128.497 24.6348 128.866 24.9859C129.235 25.337 129.423 25.842 129.423 26.5041V26.6813H126.219C126.249 27.1227 126.383 27.4537 126.628 27.6778C126.87 27.9018 127.165 28.0122 127.514 28.0122C128.057 28.0122 128.436 27.7446 128.648 27.2063ZM126.262 26.1396H128.654C128.621 25.7985 128.524 25.541 128.363 25.3738C128.131 25.1297 127.832 25.006 127.47 25.006C127.145 25.006 126.87 25.1097 126.638 25.3136C126.41 25.5176 126.282 25.7952 126.259 26.1429L126.262 26.1396Z" fill="#656464"/>
<path d="M130.392 28.4603V23.0699H131.117V28.4603H130.392Z" fill="#656464"/>
<path d="M132.556 28.4603V25.0696H131.915V24.5512H132.556V24.1366C132.556 23.8323 132.6 23.6016 132.684 23.4511C132.768 23.2973 132.899 23.1802 133.076 23.1C133.251 23.0197 133.472 22.9796 133.741 22.9796C133.949 22.9796 134.173 23.003 134.422 23.0465L134.314 23.625C134.163 23.6016 134.022 23.5882 133.888 23.5882C133.674 23.5882 133.516 23.6317 133.425 23.7153C133.331 23.7989 133.284 23.9594 133.284 24.1934V24.5512H134.123V25.0696H133.284V28.4603H132.56H132.556Z" fill="#656464"/>
<path d="M137.539 27.9787C137.297 28.1659 137.042 28.3097 136.78 28.4067C136.519 28.5037 136.247 28.5505 135.965 28.5505C135.519 28.5505 135.163 28.4502 134.898 28.2495C134.633 28.0489 134.499 27.778 134.499 27.4336C134.499 27.2062 134.563 27.0056 134.687 26.8317C134.811 26.6578 134.982 26.5207 135.2 26.4238C135.418 26.3268 135.744 26.2532 136.183 26.2064C136.774 26.1429 137.206 26.0693 137.482 25.9824V25.8118C137.485 25.541 137.421 25.3537 137.294 25.2434C137.112 25.0862 136.837 25.0059 136.465 25.0059C136.129 25.0059 135.878 25.0594 135.71 25.1631C135.542 25.2668 135.422 25.4674 135.341 25.755L134.616 25.658C134.717 25.24 134.925 24.9391 135.234 24.7485C135.542 24.5579 135.989 24.4642 136.566 24.4642C137.015 24.4642 137.367 24.5278 137.622 24.6548C137.877 24.7819 138.038 24.9391 138.106 25.123C138.173 25.3102 138.206 25.5811 138.206 25.9389V26.8217C138.206 27.4403 138.223 27.8315 138.253 27.992C138.283 28.1526 138.347 28.3097 138.441 28.4602H137.686C137.609 28.3264 137.559 28.1659 137.535 27.9787H137.539ZM137.482 26.4973C137.216 26.5943 136.821 26.6779 136.294 26.7448C135.989 26.7849 135.774 26.8284 135.653 26.8785C135.532 26.9287 135.438 26.9989 135.371 27.0925C135.304 27.1862 135.271 27.2898 135.271 27.4136C135.271 27.6008 135.348 27.7513 135.502 27.8616C135.656 27.9753 135.871 28.0288 136.143 28.0288C136.415 28.0288 136.639 27.9787 136.851 27.8784C137.062 27.778 137.22 27.6443 137.327 27.4737C137.431 27.3065 137.485 27.0591 137.485 26.7381V26.494L137.482 26.4973Z" fill="#656464"/>
<path d="M139.444 28.4602V24.5512H140.102V25.1397C140.27 24.8655 140.424 24.6816 140.561 24.5947C140.702 24.5044 140.857 24.4609 141.031 24.4609C141.273 24.4609 141.521 24.5312 141.776 24.6716L141.528 25.2869C141.347 25.1933 141.172 25.1431 141.001 25.1431C140.847 25.1431 140.706 25.1832 140.578 25.2635C140.451 25.3437 140.36 25.4574 140.306 25.6012C140.216 25.8553 140.169 26.1229 140.169 26.4071V28.4536H139.444V28.4602Z" fill="#656464"/>
<path d="M145.222 27.2063L145.97 27.2899C145.846 27.7079 145.621 28.0222 145.295 28.2329C144.97 28.4469 144.567 28.5505 144.084 28.5505C143.477 28.5505 142.987 28.3766 142.611 28.0322C142.236 27.6878 142.048 27.1896 142.048 26.5375C142.048 25.8854 142.236 25.3471 142.615 24.9926C142.994 24.6382 143.474 24.4609 144.054 24.4609C144.634 24.4609 145.071 24.6348 145.443 24.9859C145.812 25.337 146 25.842 146 26.5041V26.6813H142.796C142.826 27.1227 142.96 27.4537 143.205 27.6778C143.447 27.9018 143.742 28.0122 144.091 28.0122C144.634 28.0122 145.014 27.7446 145.228 27.2063H145.222ZM142.836 26.1396H145.228C145.195 25.7985 145.097 25.541 144.936 25.3738C144.702 25.1297 144.406 25.006 144.044 25.006C143.719 25.006 143.44 25.1097 143.212 25.3136C142.984 25.5176 142.856 25.7952 142.833 26.1429L142.836 26.1396Z" fill="#656464"/>
<path d="M40.0174 8.72794C40.8126 9.07236 41.2085 9.27299 41.2085 9.33318C41.2085 9.41009 41.1749 9.44687 41.1045 9.44687C40.9569 9.46359 40.8495 9.51041 40.7924 9.58397C40.4938 10.1324 40.1953 10.5938 39.8967 10.9717V17.1579C39.8967 17.2683 39.8161 17.3218 39.6584 17.3218H39.0646C38.9472 17.3218 38.8868 17.2683 38.8868 17.1579V12.0317C38.6284 12.2658 38.2896 12.5433 37.8736 12.8643C37.7763 12.8643 37.6756 12.8276 37.575 12.7506C37.4441 12.657 37.2999 12.56 37.1422 12.4597C37.0717 12.4163 37.0381 12.3661 37.0381 12.3093C37.3871 12.0417 37.7326 11.7508 38.0816 11.4398C38.5379 11.0453 38.9337 10.5972 39.2726 10.1023C39.5679 9.67426 39.796 9.24624 39.957 8.82825C39.9671 8.76138 39.9872 8.72794 40.0174 8.72794ZM39.9604 5.5947C40.7555 5.93912 41.1514 6.1431 41.1514 6.19995C41.1514 6.27686 41.1179 6.31364 41.0474 6.31364C40.8965 6.33036 40.7925 6.38052 40.7354 6.46412C40.3194 7.08608 39.9067 7.55757 39.4974 7.87859C39.2793 8.07922 38.8968 8.36345 38.35 8.72459C38.2393 8.72459 38.1453 8.69115 38.0681 8.62428C37.9272 8.51393 37.7796 8.41361 37.6219 8.31998C37.5515 8.27651 37.5179 8.23304 37.5179 8.17954C37.8065 7.9789 38.095 7.77158 38.3835 7.56091C38.7492 7.27668 39.068 6.95567 39.3364 6.60122C39.5846 6.29023 39.7725 5.98594 39.9034 5.69167C39.9134 5.6248 39.9336 5.59136 39.9637 5.59136L39.9604 5.5947ZM45.5063 14.2353V15.2419H47.2945C47.3751 15.2419 47.412 15.292 47.412 15.3957V15.8036C47.412 15.9407 47.3717 16.0076 47.2945 16.0076H45.5063V17.1679C45.5063 17.2783 45.4325 17.3318 45.2848 17.3318H44.6776C44.5602 17.3318 44.4998 17.2783 44.4998 17.1679V16.0076H40.6247C40.5442 16.0076 40.5073 15.9407 40.5073 15.8036V15.3957C40.5073 15.2954 40.5475 15.2419 40.6247 15.2419H41.6379V13.6234C41.6379 13.5298 41.6983 13.483 41.8157 13.483H44.4964V12.764C44.4964 12.6971 44.5568 12.6637 44.6742 12.6637C45.3855 12.6637 45.7445 12.7139 45.7445 12.8142C45.7445 12.9245 45.7042 12.9814 45.6237 12.9914C45.5432 12.9981 45.5029 13.075 45.5029 13.2188V13.483H47.053C47.1435 13.483 47.1872 13.5298 47.1872 13.6234V14.0447C47.1872 14.1718 47.1435 14.2353 47.053 14.2353H45.5029H45.5063ZM41.6916 6.70153H43.2718C43.3523 6.3638 43.4195 6.01269 43.4799 5.64152C43.51 5.57464 43.5704 5.5412 43.6577 5.5412L44.4763 5.71843C44.6071 5.74518 44.6709 5.80537 44.6709 5.90903C44.6709 6.02607 44.6071 6.08625 44.4763 6.08625C44.3958 6.11301 44.3421 6.16651 44.3119 6.25011C44.2817 6.41061 44.2582 6.56109 44.2381 6.70488H46.3383C46.496 6.70488 46.5766 6.75503 46.5766 6.85535V8.57412H47.053C47.1435 8.57412 47.1872 8.62427 47.1872 8.72794V9.14927C47.1872 9.2429 47.1435 9.28971 47.053 9.28971H41.3293C41.2487 9.28971 41.2085 9.2429 41.2085 9.14927V8.72794C41.2085 8.62762 41.2487 8.57412 41.3293 8.57412H42.8793C42.9598 8.22301 43.0437 7.83511 43.1343 7.41713H41.6882C41.6077 7.41713 41.5708 7.36697 41.5708 7.26331V6.85535C41.5708 6.75503 41.6111 6.70153 41.6882 6.70153H41.6916ZM41.9902 10.0856H46.5195C46.6772 10.0856 46.7577 10.1391 46.7577 10.2494V12.2624C46.7577 12.3728 46.6772 12.4263 46.5195 12.4263H41.9902C41.8325 12.4263 41.752 12.3728 41.752 12.2624V10.2494C41.752 10.1391 41.8325 10.0856 41.9902 10.0856ZM42.6444 14.2353V15.2419H44.4964V14.2353H42.6444ZM45.7478 11.704V10.8145H42.7585V11.704H45.7478ZM43.8254 8.57412H45.57V7.41713H44.0938C44.0032 7.83511 43.916 8.22301 43.8254 8.57412ZM47.5394 9.24958H51.2904C51.4112 9.24958 51.4682 9.31312 51.4682 9.44019V9.84814C51.4682 9.98524 51.4078 10.0521 51.2904 10.0521H50.2168V16.5159C50.2168 17.1211 49.6431 17.4254 48.4923 17.4254H48.0159C47.9555 17.4254 47.9253 17.3485 47.9253 17.198C47.9152 17.0208 47.8447 16.8101 47.7173 16.566V16.5159C47.9655 16.5828 48.2037 16.6162 48.4319 16.6162C48.9486 16.6162 49.2069 16.4691 49.2069 16.1748V10.0521H47.5361C47.4153 10.0521 47.3583 9.98524 47.3583 9.84814V9.44019C47.3583 9.31312 47.4187 9.24958 47.5361 9.24958H47.5394ZM48.1266 6.52765H50.8677C50.9884 6.52765 51.0455 6.59118 51.0455 6.71825V7.12621C51.0455 7.26331 50.9851 7.33019 50.8677 7.33019H48.1266C48.0058 7.33019 47.9488 7.26331 47.9488 7.12621V6.71825C47.9488 6.59118 48.0092 6.52765 48.1266 6.52765Z" fill="#656464"/>
<path d="M63.033 5.91903L64.1201 6.23335C64.2308 6.30023 64.2845 6.36042 64.2845 6.41058C64.2845 6.52093 64.2241 6.58781 64.1067 6.61121C63.9859 6.61121 63.9121 6.6714 63.8819 6.78844C63.7041 7.32681 63.543 7.77824 63.4054 8.13938H67.0256V5.85549C67.0256 5.75518 67.1061 5.70502 67.2638 5.70502C68.0186 5.70502 68.3944 5.75518 68.3944 5.85549C68.3944 5.97253 68.3441 6.03941 68.2468 6.05613C68.1461 6.06281 68.0992 6.14976 68.0992 6.31026V8.13938H73.1049C73.2257 8.13938 73.2827 8.18619 73.2827 8.27982V8.78809C73.2827 8.92519 73.2223 8.99207 73.1049 8.99207H68.0992V11.8678H72.3903C72.5077 11.8678 72.5681 11.9314 72.5681 12.0584V12.4798C72.5681 12.6068 72.5077 12.6704 72.3903 12.6704H68.0992V16.1079H73.8229C73.9436 16.1079 74.0007 16.1614 74.0007 16.2717V16.7733C74.0007 16.9004 73.9403 16.9606 73.8229 16.9606H60.5906C60.4698 16.9606 60.4128 16.8971 60.4128 16.7733V16.2717C60.4128 16.1614 60.4732 16.1079 60.5906 16.1079H67.0289V12.6704H62.3788C62.258 12.6704 62.201 12.6068 62.201 12.4798V12.0584C62.201 11.9314 62.2614 11.8678 62.3788 11.8678H67.0289V8.99207H63.0196C62.8116 9.40337 62.5935 9.79461 62.362 10.1658C62.0936 10.5537 61.8017 10.9014 61.483 11.2124C61.3522 11.2124 61.2381 11.1957 61.1408 11.1623C60.9328 11.0854 60.7248 11.0185 60.5168 10.9616C60.4463 10.9282 60.4128 10.8981 60.4128 10.8747C60.4128 10.8145 60.4329 10.7744 60.4731 10.7476C60.9697 10.2862 61.4059 9.7177 61.785 9.04223C62.0131 8.65099 62.2111 8.23969 62.3822 7.7983C62.57 7.33684 62.7512 6.74831 62.919 6.02938C62.9492 5.95247 62.9894 5.91568 63.0398 5.91568L63.033 5.91903Z" fill="#656464"/>
<path d="M83.8947 10.4968L84.9818 10.7108C85.0925 10.7543 85.1462 10.8045 85.1462 10.8613C85.1462 10.9616 85.1026 11.0185 85.012 11.0252C84.8644 11.0753 84.767 11.2191 84.7301 11.4532C84.7301 12.9947 84.6865 14.0581 84.596 14.6466C84.4852 15.2117 84.3712 15.7133 84.2537 16.148C84.2537 16.2249 84.1934 16.2617 84.0759 16.2617C83.4787 16.1012 83.1835 15.9975 83.1835 15.9474C83.4116 15.2652 83.5559 14.7101 83.6163 14.2821C83.7069 13.4662 83.7605 12.2457 83.7807 10.6206C83.7807 10.537 83.8209 10.4935 83.8981 10.4935L83.8947 10.4968ZM83.3613 8.72456H88.6052C88.726 8.72456 88.783 8.79144 88.783 8.92519V9.32646C88.783 9.46022 88.7227 9.5271 88.6052 9.5271H86.6392V17.1545C86.6392 17.2649 86.5587 17.3184 86.401 17.3184H85.8038C85.6461 17.3184 85.5655 17.2649 85.5655 17.1545V9.5271H83.3613C83.2405 9.5271 83.1835 9.46022 83.1835 9.32646V8.92519C83.1835 8.79144 83.2439 8.72456 83.3613 8.72456ZM84.0726 6.20326H87.9476C88.0684 6.20326 88.1254 6.27014 88.1254 6.40389V6.80516C88.1254 6.94895 88.0651 7.01917 87.9476 7.01917H84.0726C83.9551 7.01917 83.8947 6.94895 83.8947 6.80516V6.40389C83.8947 6.27014 83.9551 6.20326 84.0726 6.20326ZM87.7094 10.5436H88.2462C88.4039 10.5436 88.4844 10.6139 88.4844 10.7577C88.3637 11.2392 88.3066 11.704 88.3066 12.1587C88.3066 13.406 88.4844 14.553 88.8434 15.6063C88.8434 15.6665 88.7931 15.7066 88.6925 15.7334C88.1758 15.7768 87.8873 15.7969 87.8269 15.7969L87.7363 15.6063C87.5585 14.048 87.4679 12.4329 87.4679 10.7577C87.4679 10.6139 87.5484 10.5436 87.7061 10.5436H87.7094ZM89.4943 11.6505H96.5902C96.7479 11.6505 96.8284 11.7006 96.8284 11.8009V17.1545C96.8284 17.2649 96.7479 17.3184 96.5902 17.3184H95.993C95.8354 17.3184 95.7548 17.2649 95.7548 17.1545V16.6496H90.3264V17.1545C90.3264 17.2649 90.2459 17.3184 90.0882 17.3184H89.491C89.3333 17.3184 89.2528 17.2649 89.2528 17.1545V11.8611C89.2528 11.7174 89.3333 11.6471 89.491 11.6471L89.4943 11.6505ZM89.4943 6.04944H96.7077C96.8284 6.04944 96.8855 6.11632 96.8855 6.25007V6.65134C96.8855 6.7851 96.8251 6.85198 96.7077 6.85198H89.4943C89.3735 6.85198 89.3165 6.7851 89.3165 6.65134V6.25007C89.3165 6.11632 89.3769 6.04944 89.4943 6.04944ZM90.0915 7.71805H96.0501C96.2078 7.71805 96.2883 7.7682 96.2883 7.86852V10.6339C96.2883 10.7409 96.2078 10.7978 96.0501 10.7978H90.0915C89.9338 10.7978 89.8533 10.7443 89.8533 10.6339V7.86852C89.8533 7.7682 89.9338 7.71805 90.0915 7.71805ZM90.3264 13.7237H92.534V12.463H90.3264V13.7237ZM90.3264 15.8504H92.534V14.5396H90.3264V15.8504ZM95.218 9.98187V8.51724H90.9269V9.98187H95.218ZM93.6076 12.463V13.7237H95.7515V12.463H93.6076ZM93.6076 15.8471H95.7515V14.5363H93.6076V15.8471Z" fill="#656464"/>
<path d="M112.869 6.5209C112.809 6.5209 112.725 6.53428 112.614 6.55769C112.198 6.70147 111.695 6.83189 111.108 6.94892C110.997 6.98236 110.889 7.00911 110.779 7.02583V9.28631H113.641C113.758 9.28631 113.818 9.35319 113.818 9.48694V9.88821C113.818 10.022 113.758 10.0888 113.641 10.0888H110.943C111.252 10.6372 111.534 11.0753 111.792 11.403C112.131 11.8477 112.701 12.3627 113.506 12.9445C113.597 12.978 113.641 13.0214 113.641 13.0716C113.641 13.105 113.607 13.1418 113.537 13.1853C113.426 13.3023 113.278 13.4327 113.09 13.5765C113.03 13.6434 112.976 13.6769 112.926 13.6769C112.866 13.6769 112.778 13.6501 112.658 13.5999C112.111 13.1619 111.628 12.6636 111.212 12.1086C111.061 11.9079 110.92 11.6973 110.779 11.4766V17.2214C110.779 17.315 110.698 17.3618 110.541 17.3618H109.943C109.786 17.3618 109.705 17.315 109.705 17.2214V11.8678C109.645 11.9614 109.591 12.045 109.541 12.1186C109.192 12.6235 108.816 13.0984 108.407 13.5464C107.95 14.0079 107.487 14.4058 107.021 14.7335C106.904 14.7335 106.813 14.7068 106.753 14.6566C106.565 14.4961 106.37 14.349 106.172 14.2152C106.142 14.155 106.129 14.1149 106.129 14.0882C106.565 13.8106 106.927 13.5431 107.216 13.2823C107.622 12.9378 108.051 12.473 108.497 11.8946C108.766 11.5334 109.131 10.9315 109.601 10.0888H106.367C106.246 10.0888 106.189 10.022 106.189 9.88821V9.48694C106.189 9.35319 106.249 9.28631 106.367 9.28631H109.705V7.20306C109.527 7.22981 109.353 7.24987 109.185 7.26659C108.481 7.33347 107.84 7.36691 107.263 7.36691C107.095 7.36691 106.984 7.30672 106.934 7.18968C106.803 7.02918 106.655 6.85195 106.488 6.658C106.488 6.56437 106.548 6.5209 106.665 6.5209H107.561C108.276 6.5209 108.897 6.48412 109.423 6.40721C109.9 6.37377 110.373 6.29686 110.839 6.17983C111.386 6.06279 111.849 5.89894 112.225 5.68827C112.275 5.66487 112.309 5.65149 112.329 5.65149C112.45 5.65149 112.533 5.67155 112.584 5.71502C113.171 6.14304 113.463 6.4139 113.463 6.52425C113.463 6.61788 113.402 6.66135 113.285 6.66135L112.869 6.52425V6.5209ZM115.07 7.21309C115.825 7.21309 116.204 7.26325 116.204 7.36357C116.204 7.4806 116.154 7.55082 116.056 7.5642C115.959 7.57423 115.909 7.65783 115.909 7.81834V14.3323C115.909 14.4326 115.828 14.4827 115.67 14.4827H115.073C114.915 14.4827 114.835 14.4326 114.835 14.3323V7.36357C114.835 7.26325 114.915 7.21309 115.073 7.21309H115.07ZM118.167 5.79862L119.468 5.93907C119.606 5.98922 119.676 6.02601 119.676 6.05276C119.676 6.14639 119.602 6.18986 119.452 6.18986C119.233 6.26677 119.123 6.48747 119.123 6.85864V16.3018C119.123 16.984 118.566 17.325 117.449 17.325H116.375C116.294 17.325 116.254 17.2415 116.254 17.0709C116.214 16.9037 116.113 16.6964 115.956 16.4523C115.956 16.352 115.996 16.3018 116.073 16.3018C116.539 16.4021 116.959 16.4523 117.324 16.4523C117.761 16.4523 117.979 16.3018 117.979 15.9975V6.80513C117.979 6.52759 117.969 6.31693 117.948 6.17314C117.928 6.06279 117.918 5.97585 117.918 5.90897C117.918 5.83206 117.999 5.79528 118.156 5.79528L118.167 5.79862Z" fill="#656464"/>
<path d="M129.081 10.8646H136.844C136.955 10.8646 137.008 10.9281 137.008 11.0552V11.4631C137.008 11.6002 136.955 11.6671 136.844 11.6671H129.081C128.963 11.6671 128.903 11.6002 128.903 11.4631V11.0552C128.903 10.9281 128.963 10.8646 129.081 10.8646ZM132.711 5.54443C133.466 5.54443 133.845 5.59459 133.845 5.69491C133.845 5.81195 133.794 5.87548 133.697 5.88551C133.6 5.90223 133.549 5.98917 133.549 6.14968V7.15954H136.472C136.589 7.15954 136.649 7.22642 136.649 7.36017V7.76144C136.649 7.8952 136.589 7.96207 136.472 7.96207H129.379C129.268 7.96207 129.215 7.8952 129.215 7.76144V7.36017C129.215 7.22642 129.268 7.15954 129.379 7.15954H132.479V5.69491C132.479 5.59459 132.56 5.54443 132.717 5.54443H132.711ZM130.03 12.6703H135.76C135.918 12.6703 135.999 12.7204 135.999 12.8208V17.1578C135.999 17.2681 135.918 17.3217 135.76 17.3217H135.163C135.016 17.3217 134.938 17.2681 134.938 17.1578V16.5526H130.865V17.1578C130.865 17.2681 130.785 17.3217 130.627 17.3217H130.03C129.872 17.3217 129.792 17.2681 129.792 17.1578V12.8709C129.792 12.7372 129.872 12.6703 130.03 12.6703ZM130.99 8.2229C131.248 8.66095 131.453 9.06556 131.6 9.43673C131.768 9.76444 131.902 10.1189 132.003 10.4968C132.003 10.5302 131.664 10.6171 130.99 10.7609C130.949 10.5168 130.865 10.2226 130.735 9.87813C130.587 9.48355 130.392 9.08562 130.154 8.69104C130.154 8.61414 130.433 8.46032 130.99 8.2229ZM130.865 15.75H134.938V13.4862H130.865V15.75ZM134.938 8.13596L135.834 8.44025C135.982 8.49041 136.059 8.55729 136.059 8.64089C136.059 8.70108 136.015 8.7412 135.925 8.76795C135.824 8.76795 135.76 8.81811 135.73 8.91843C135.432 9.65074 135.133 10.2159 134.834 10.6104C134.774 10.7108 134.724 10.7609 134.687 10.7609C134.616 10.7609 134.532 10.7308 134.432 10.674C134.224 10.5904 134.029 10.5202 133.851 10.46C133.771 10.4366 133.731 10.4132 133.731 10.3964C133.731 10.3697 133.744 10.3429 133.774 10.3095C134.043 9.94835 134.247 9.62734 134.385 9.34979C134.583 8.99534 134.727 8.64423 134.818 8.28978C134.848 8.18946 134.888 8.1393 134.938 8.1393V8.13596ZM138.756 6.86862V17.1712C138.756 17.2815 138.673 17.335 138.505 17.335H137.911C137.753 17.335 137.673 17.2815 137.673 17.1712V6.25668C137.673 6.15637 137.753 6.10287 137.911 6.10287H142.081C142.259 6.10287 142.39 6.12962 142.467 6.17977C142.725 6.34028 142.856 6.45732 142.856 6.5242L140.726 10.149C140.686 10.2426 140.665 10.3095 140.665 10.3496C140.665 10.4098 140.699 10.4767 140.769 10.5503C141.276 10.995 141.702 11.5367 142.051 12.1654C142.4 12.8208 142.571 13.4795 142.571 14.1349C142.571 14.5797 142.467 14.9709 142.259 15.3086C142.041 15.6631 141.722 15.9072 141.306 16.0409C141.038 16.1914 140.582 16.2683 139.934 16.2683C139.676 16.2683 139.545 16.1914 139.545 16.0409C139.485 15.73 139.397 15.4992 139.276 15.3488C139.276 15.2484 139.337 15.1983 139.454 15.1983L140.169 15.2986C140.645 15.2986 140.984 15.1816 141.182 14.9441C141.38 14.7435 141.481 14.4726 141.481 14.1349C141.481 13.6634 141.34 13.1384 141.065 12.5566C140.716 11.9079 140.206 11.2759 139.528 10.6639C139.438 10.6138 139.394 10.5569 139.394 10.5001C139.394 10.46 139.414 10.3897 139.454 10.2995L141.602 6.86527H138.756V6.86862Z" fill="#656464"/>
</svg>
